<?xml version="1.0" encoding="UTF-8" standalone="no"?><!DOCTYPE svg PUBLIC "-//W3C//DTD SVG 1.1//EN" "http://www.w3.org/Graphics/SVG/1.1/DTD/svg11.dtd"><svg width="100%" height="100%" viewBox="0 0 120 120" version="1.1" xml:space="preserve"  style="fill-rule:evenodd;clip-rule:evenodd;stroke-linejoin:round;stroke-miterlimit:2;"><path d="M53.534,53.241c0.354,-0.363 0.519,-0.871 0.446,-1.373c-0.073,-0.502 -0.375,-0.942 -0.818,-1.19c-7.266,-4.059 -33.348,-18.631 -33.348,-18.631c-0.445,-0.249 -0.658,-0.773 -0.511,-1.261c0.146,-0.488 0.612,-0.809 1.12,-0.772c0,0 36.953,2.714 48.578,3.568c2.191,0.161 4.341,-0.654 5.875,-2.225c6.566,-6.734 24.249,-24.867 24.353,-24.971c5.781,-5.781 13.72,-7.228 17.719,-3.229c3.998,3.998 2.551,11.938 -3.229,17.718l-0.068,0.068c-0.12,0.119 -18.219,17.626 -24.93,24.117c-1.563,1.514 -2.375,3.643 -2.215,5.813c0.853,11.62 3.584,48.808 3.584,48.808c0.038,0.508 -0.283,0.974 -0.771,1.121c-0.489,0.146 -1.013,-0.066 -1.261,-0.511c0,0 -14.963,-26.782 -18.873,-33.779c-0.221,-0.396 -0.613,-0.667 -1.061,-0.733c-0.449,-0.066 -0.902,0.08 -1.228,0.395c-6.664,6.447 -35.656,34.496 -39.986,38.685c-0.332,0.321 -0.45,0.803 -0.305,1.241c0.892,2.69 3.993,12.041 3.993,12.041c0.107,0.322 -0.022,0.675 -0.311,0.853c-0.289,0.179 -0.662,0.135 -0.902,-0.105c-6.004,-6.004 -22.682,-22.682 -28.401,-28.401c-0.215,-0.215 -0.254,-0.549 -0.094,-0.807c0.159,-0.258 0.475,-0.373 0.763,-0.277c0,0 8.437,2.797 11.48,3.806c0.659,0.219 1.385,0.042 1.87,-0.455c4.974,-5.102 31.882,-32.695 38.531,-39.514Z"/></svg>