<?xml version="1.0" encoding="UTF-8" standalone="no"?><!DOCTYPE svg PUBLIC "-//W3C//DTD SVG 1.1//EN" "http://www.w3.org/Graphics/SVG/1.1/DTD/svg11.dtd"><svg width="100%" height="100%" viewBox="0 0 120 120" version="1.1" xml:space="preserve" style="fill-rule:evenodd;clip-rule:evenodd;stroke-linejoin:round;stroke-miterlimit:2;"><path d="M46.934,0l0.151,0.001l0.151,0.001l0.151,0.002l0.151,0.002l0.15,0.003l0.151,0.003l0.15,0.003l0.151,0.004l0.15,0.005l0.15,0.005l0.15,0.005l0.15,0.006l0.149,0.007l0.15,0.007l0.15,0.007l0.149,0.008l0.149,0.008l0.149,0.009l0.149,0.009l0.149,0.01l0.149,0.01l0.148,0.01l0.149,0.012l0.148,0.011l0.148,0.012l0.149,0.013l0.147,0.012l0.148,0.014l0.148,0.014l0.148,0.014l0.147,0.015l0.147,0.015l0.147,0.016l0.147,0.016l0.147,0.016l0.147,0.017l0.147,0.018l0.146,0.018l0.147,0.018l0.146,0.019l0.146,0.019l0.146,0.02l0.145,0.02l0.146,0.021l0.146,0.021l0.145,0.021l0.145,0.022l0.145,0.023l0.145,0.023l0.145,0.023l0.144,0.024l0.145,0.024l0.144,0.025l0.144,0.025l0.144,0.025l0.144,0.026l0.144,0.027l0.144,0.026l0.143,0.028l0.143,0.027l0.143,0.029l0.143,0.028l0.143,0.029l0.143,0.03l0.142,0.029l0.142,0.031l0.143,0.031l0.141,0.031l0.142,0.031l0.142,0.032l0.141,0.033l0.142,0.033l0.141,0.033l0.141,0.034l0.141,0.034l0.141,0.035l0.14,0.035l0.14,0.035l0.141,0.036l0.14,0.036l0.139,0.037l0.14,0.037l0.14,0.038l0.139,0.038l0.139,0.038l0.139,0.039l0.139,0.039l0.138,0.04l0.139,0.04l0.138,0.04l0.138,0.041l0.138,0.041l0.138,0.042l0.138,0.042l0.137,0.043l0.137,0.043l0.137,0.043l0.137,0.044l0.137,0.044l0.136,0.045l0.136,0.045l0.137,0.045l0.135,0.046l0.136,0.046l0.136,0.047l0.135,0.047l0.135,0.047l0.135,0.048l0.135,0.048l0.135,0.049l0.134,0.049l0.134,0.049l0.134,0.05l0.134,0.05l0.134,0.051l0.133,0.051l0.134,0.051l0.133,0.052l0.132,0.052l0.133,0.053l0.133,0.053l0.132,0.053l0.132,0.054l0.132,0.054l0.131,0.055l0.132,0.055l0.131,0.055l0.131,0.056l0.131,0.056l0.131,0.056l0.13,0.057l0.13,0.057l0.13,0.058l0.13,0.058l0.13,0.058l0.129,0.059l0.13,0.059l0.129,0.06l0.128,0.06l0.129,0.06l0.128,0.061l0.128,0.061l0.128,0.061l0.128,0.062l0.127,0.062l0.128,0.063l0.127,0.063l0.127,0.063l0.126,0.064l0.127,0.064l0.126,0.064l0.126,0.065l0.126,0.065l0.125,0.066l0.125,0.066l0.125,0.066l0.125,0.067l0.125,0.067l0.124,0.067l0.124,0.068l0.124,0.068l0.124,0.068l0.124,0.069l0.123,0.069l0.123,0.07l0.123,0.07l0.122,0.07l0.123,0.071l0.122,0.071l0.122,0.071l0.121,0.072l0.122,0.072l0.121,0.072l0.121,0.073l0.12,0.073l0.121,0.073l0.12,0.074l0.12,0.074l0.12,0.075l0.119,0.075l0.12,0.075l0.119,0.076l0.118,0.075l0.119,0.077l0.118,0.076l0.118,0.077l0.118,0.078l0.117,0.077l0.118,0.078l0.117,0.079l0.117,0.078l0.116,0.079l0.116,0.08l0.117,0.079l0.115,0.08l0.116,0.081l0.115,0.081l0.115,0.081l0.115,0.081l0.114,0.082l0.115,0.082l0.114,0.082l0.114,0.083l0.113,0.083l0.113,0.083l0.113,0.084l0.113,0.084l0.112,0.085l0.113,0.084l0.112,0.085l0.111,0.086l0.112,0.085l0.111,0.086l0.111,0.087l0.11,0.086l0.111,0.087l0.11,0.088l0.11,0.087l0.109,0.088l0.109,0.089l0.109,0.088l0.109,0.089l0.109,0.089l0.108,0.09l0.108,0.09l0.107,0.09l0.108,0.091l0.107,0.09l0.107,0.092l0.106,0.091l0.106,0.092l0.106,0.092l0.106,0.092l0.105,0.093l0.106,0.093l0.104,0.093l0.105,0.094l0.104,0.094l0.104,0.094l0.104,0.095l0.103,0.095l0.104,0.095l0.103,0.095l0.102,0.096l0.102,0.096l0.102,0.097l0.102,0.096l0.102,0.097l0.101,0.098l0.101,0.097l0.1,0.098l0.1,0.098l0.1,0.099l0.1,0.099l0.099,0.099l0.1,0.099l0.098,0.1l0.099,0.1l0.098,0.1l0.098,0.101l0.098,0.101l0.097,0.101l0.097,0.101l0.097,0.102l0.096,0.102l0.096,0.102l0.096,0.103l0.095,0.103l0.095,0.103l0.095,0.103l0.095,0.104l0.094,0.104l0.094,0.104l0.094,0.105l0.093,0.105l0.093,0.105l0.093,0.105l0.092,0.106l0.092,0.106l0.092,0.106l0.092,0.107l0.091,0.107l0.091,0.107l0.09,0.107l0.09,0.108l0.09,0.108l0.09,0.108l0.089,0.108l0.089,0.109l0.089,0.109l0.088,0.109l0.088,0.11l0.087,0.11l0.088,0.11l0.087,0.11l0.086,0.111l0.087,0.11l0.086,0.112l0.086,0.111l0.085,0.112l0.085,0.112l0.085,0.112l0.084,0.112l0.084,0.113l0.084,0.113l0.083,0.113l0.083,0.114l0.083,0.113l0.082,0.114l0.083,0.115l0.081,0.114l0.082,0.115l0.081,0.115l0.08,0.115l0.081,0.116l0.08,0.116l0.08,0.116l0.079,0.116l0.079,0.117l0.079,0.116l0.078,0.117l0.078,0.118l0.078,0.117l0.077,0.118l0.077,0.118l0.076,0.118l0.077,0.119l0.076,0.119l0.075,0.119l0.075,0.119l0.075,0.119l0.075,0.12l0.074,0.12l0.074,0.12l0.073,0.121l0.073,0.12l0.073,0.121l0.073,0.122l0.072,0.121l0.071,0.122l0.072,0.121l0.071,0.123l0.07,0.122l0.071,0.122l0.069,0.123l0.07,0.123l0.069,0.124l0.069,0.123l0.069,0.124l0.068,0.124l0.067,0.124l0.068,0.124l0.067,0.125l0.066,0.125l0.067,0.125l0.066,0.125l0.065,0.126l0.065,0.125l0.065,0.126l0.064,0.127l0.065,0.126l0.063,0.127l0.063,0.126l0.063,0.127l0.063,0.128l0.062,0.127l0.062,0.128l0.061,0.128l0.062,0.128l0.06,0.128l0.06,0.129l0.06,0.129l0.06,0.129l0.059,0.129l0.059,0.129l0.058,0.13l0.058,0.13l0.058,0.13l0.057,0.13l0.057,0.13l0.057,0.131l0.056,0.131l0.055,0.131l0.056,0.131l0.055,0.132l0.054,0.131l0.054,0.132l0.054,0.132l0.053,0.133l0.053,0.132l0.053,0.133l0.052,0.133l0.052,0.133l0.051,0.133l0.051,0.133l0.051,0.134l0.05,0.134l0.05,0.134l0.05,0.134l0.049,0.135l0.048,0.134l0.048,0.135l0.048,0.135l0.048,0.135l0.047,0.135l0.046,0.136l0.046,0.136l0.046,0.136l0.046,0.136l0.045,0.136l0.044,0.137l0.044,0.136l0.044,0.137l0.044,0.137l0.042,0.137l0.043,0.138l0.042,0.137l0.042,0.138l0.041,0.138l0.041,0.138l0.041,0.138l0.04,0.139l0.039,0.138l0.039,0.139l0.039,0.139l0.039,0.139l0.038,0.14l0.037,0.139l0.037,0.14l0.037,0.14l0.036,0.14l0.036,0.14l0.036,0.14l0.035,0.141l0.034,0.14l0.034,0.141l0.034,0.141l0.033,0.141l0.033,0.142l0.033,0.141l0.032,0.142l0.031,0.142l0.032,0.142l0.03,0.142l0.031,0.142l0.03,0.143l0.029,0.142l0.029,0.143l0.029,0.143l0.028,0.143l0.028,0.143l0.027,0.144l0.027,0.143l0.026,0.144l0.026,0.144l0.025,0.144l0.026,0.144l0.024,0.144l0.024,0.145l0.024,0.144l0.023,0.145l0.023,0.145l0.023,0.145l0.022,0.145l0.021,0.146l0.021,0.145l0.021,0.146l0.02,0.146l0.02,0.145l0.019,0.146l0.019,0.147l0.018,0.146l0.018,0.146l0.018,0.147l0.017,0.147l0.016,0.147l0.017,0.147l0.015,0.147l0.016,0.147l0.014,0.148l0.015,0.147l0.013,0.148l0.014,0.148l0.013,0.148l0.012,0.148l0.012,0.148l0.012,0.148l0.011,0.149l0.01,0.148l0.011,0.149l0.009,0.149l0.009,0.149l0.009,0.149l0.008,0.149l0.008,0.15l0.008,0.149l0.007,0.15l0.006,0.15l0.006,0.149l0.005,0.15l0.005,0.15l0.005,0.151l0.004,0.15l0.004,0.15l0.003,0.151l0.002,0.151l0.002,0.15l0.002,0.151l0.001,0.151l0.001,0.151l0,0.152l0,0.132l-0.001,0.132l0,0.132l-0.002,0.132l-0.001,0.132l-0.002,0.132l-0.003,0.132l-0.002,0.132l-0.004,0.131l-0.003,0.132l-0.004,0.131l-0.004,0.132l-0.005,0.131l-0.005,0.131l-0.005,0.131l-0.005,0.131l-0.006,0.131l-0.007,0.131l-0.007,0.131l-0.007,0.13l-0.007,0.131l-0.008,0.13l-0.008,0.13l-0.008,0.131l-0.009,0.13l-0.009,0.13l-0.01,0.13l-0.01,0.13l-0.01,0.129l-0.011,0.13l-0.011,0.129l-0.011,0.13l-0.012,0.129l-0.012,0.129l-0.012,0.13l-0.013,0.129l-0.013,0.129l-0.014,0.128l-0.013,0.129l-0.014,0.129l-0.015,0.128l-0.015,0.129l-0.015,0.128l-0.015,0.128l-0.016,0.128l-0.016,0.128l-0.017,0.128l-0.017,0.128l-0.017,0.128l-0.018,0.127l-0.018,0.128l-0.018,0.127l-0.019,0.127l-0.019,0.127l-0.019,0.127l-0.019,0.127l-0.02,0.127l-0.021,0.127l-0.02,0.126l-0.021,0.127l-0.022,0.126l-0.021,0.126l-0.022,0.126l-0.023,0.126l-0.022,0.126l-0.024,0.126l-0.023,0.125l-0.024,0.126l-0.024,0.125l-0.024,0.126l-0.025,0.125l-0.025,0.125l-0.025,0.125l-0.026,0.125l-0.026,0.124l-0.026,0.125l-0.027,0.124l-0.027,0.125l-0.027,0.124l-0.028,0.124l-0.028,0.124l-0.028,0.124l-0.029,0.123l-0.029,0.124l-0.029,0.123l-0.03,0.124l-0.03,0.123l-0.03,0.123l-0.031,0.123l-0.03,0.123l-0.032,0.122l-0.031,0.123l-0.032,0.122l-0.032,0.123l-0.033,0.122l-0.033,0.122l-0.033,0.122l-0.034,0.121l-0.033,0.122l-0.035,0.122l-0.034,0.121l-0.035,0.121l-0.035,0.121l-0.035,0.121l-0.036,0.121l-0.036,0.121l-0.037,0.12l-0.036,0.121l-0.037,0.12l-0.038,0.12l-0.037,0.12l-0.038,0.12l-0.038,0.12l-0.039,0.119l-0.039,0.12l-0.039,0.119l-0.04,0.119l-0.039,0.119l-0.041,0.119l-0.04,0.119l-0.041,0.119l-0.041,0.118l-0.041,0.118l-0.042,0.119l-0.042,0.118l-0.042,0.118l-0.043,0.117l-0.043,0.118l-0.043,0.117l-0.043,0.118l-0.044,0.117l-0.044,0.117l-0.045,0.117l-0.044,0.116l-0.045,0.117l-0.046,0.116l-0.045,0.116l-0.046,0.117l-0.047,0.116l-0.046,0.115l-0.047,0.116l-0.047,0.115l-0.048,0.116l-0.047,0.115l-0.048,0.115l-0.049,0.115l-0.048,0.115l-0.049,0.114l-0.049,0.115l-0.05,0.114l-0.05,0.114l-0.05,0.114l-0.05,0.114l-0.051,0.113l-0.051,0.114l-0.051,0.113l-0.052,0.113l-0.052,0.113l-0.052,0.113l-0.052,0.113l-0.053,0.112l-0.053,0.112l-0.053,0.113l-0.054,0.112l-0.054,0.111l-0.054,0.112l-0.054,0.112l-0.055,0.111l-0.055,0.111l-0.056,0.111l-0.055,0.111l-0.056,0.111l-0.056,0.11l-0.057,0.11l-0.056,0.111l-0.057,0.11l-0.058,0.109l-0.057,0.11l-0.058,0.11l-0.058,0.109l-0.059,0.109l-0.058,0.109l-0.059,0.109l-0.06,0.108l-0.059,0.109l-0.06,0.108l-0.06,0.108l-0.061,0.108l-0.06,0.108l-0.061,0.108l-0.061,0.107l-0.062,0.107l-0.062,0.107l-0.062,0.107l-0.062,0.107l-0.063,0.106l-0.062,0.107l-0.064,0.106l-0.063,0.106l-0.064,0.106l-0.064,0.105l-0.064,0.106l-0.064,0.105l-0.065,0.105l-0.065,0.105l-0.065,0.104l-0.066,0.105l-0.066,0.104l-0.066,0.104l-0.066,0.104l-0.067,0.104l-0.067,0.104l-0.067,0.103l-0.067,0.103l-0.068,0.103l-0.068,0.103l-0.068,0.103l-0.068,0.102l-0.069,0.102l-0.069,0.103l-0.069,0.101l-0.07,0.102l-0.07,0.102l-0.07,0.101l-0.07,0.101l-0.071,0.101l-0.07,0.101l-0.072,0.1l-0.071,0.1l-0.071,0.101l-0.072,0.1l-0.072,0.099l-0.073,0.1l-0.072,0.099l-0.073,0.099l-0.073,0.099l-0.074,0.099l-0.073,0.099l-0.074,0.098l-0.074,0.098l-0.075,0.098l-0.074,0.098l-0.075,0.097l-0.075,0.098l-0.076,0.097l-0.075,0.097l-0.076,0.096l-0.076,0.097l-0.077,0.096l-0.076,0.096l-0.077,0.096l-0.077,0.096l-0.078,0.096l-0.077,0.095l-0.078,0.095l-0.078,0.095l35.326,35.326l0.02,0.02l0.019,0.02l0.02,0.021l0.019,0.021l0.019,0.021l0.018,0.021l0.019,0.022l0.018,0.021l0.017,0.022l0.018,0.022l0.017,0.023l0.017,0.022l0.016,0.023l0.017,0.023l0.016,0.023l0.015,0.023l0.016,0.024l0.015,0.023l0.015,0.024l0.014,0.024l0.014,0.024l0.014,0.024l0.014,0.025l0.013,0.024l0.013,0.025l0.013,0.025l0.012,0.025l0.012,0.025l0.012,0.025l0.012,0.026l0.011,0.025l0.011,0.026l0.01,0.026l0.01,0.026l0.01,0.026l0.01,0.026l0.009,0.027l0.009,0.026l0.009,0.027l0.008,0.026l0.008,0.027l0.008,0.027l0.007,0.027l0.007,0.027l0.007,0.027l0.006,0.028l0.006,0.027l0.006,0.027l0.005,0.028l0.005,0.027l0.004,0.028l0.005,0.028l0.004,0.028l0.003,0.028l0.004,0.028l0.003,0.028l0.002,0.028l0.003,0.028l0.002,0.028l0.001,0.028l0.001,0.029l0.001,0.028l0.001,0.028l0,0.029l0,0.028l-0.001,0.029l-0.001,0.028l-0.001,0.028l-0.001,0.029l-0.002,0.028l-0.003,0.028l-0.002,0.028l-0.003,0.028l-0.004,0.028l-0.003,0.028l-0.004,0.028l-0.005,0.028l-0.004,0.027l-0.005,0.028l-0.005,0.028l-0.006,0.027l-0.006,0.027l-0.006,0.028l-0.007,0.027l-0.007,0.027l-0.007,0.027l-0.008,0.027l-0.008,0.027l-0.008,0.026l-0.009,0.027l-0.009,0.026l-0.009,0.027l-0.01,0.026l-0.01,0.026l-0.01,0.026l-0.01,0.026l-0.011,0.026l-0.011,0.025l-0.012,0.026l-0.012,0.025l-0.012,0.025l-0.012,0.025l-0.013,0.025l-0.013,0.025l-0.013,0.024l-0.014,0.025l-0.014,0.024l-0.014,0.024l-0.014,0.024l-0.015,0.024l-0.015,0.023l-0.016,0.024l-0.015,0.023l-0.016,0.023l-0.017,0.023l-0.016,0.023l-0.017,0.022l-0.017,0.022l-0.018,0.023l-0.017,0.021l-0.018,0.022l-0.019,0.022l-0.018,0.021l-0.019,0.021l-0.019,0.021l-0.02,0.021l-0.019,0.02l-0.02,0.02l-3.123,3.123l-0.02,0.019l-0.02,0.02l-0.021,0.019l-0.02,0.019l-0.021,0.019l-0.022,0.019l-0.021,0.018l-0.022,0.018l-0.021,0.017l-0.022,0.018l-0.023,0.017l-0.022,0.017l-0.023,0.016l-0.022,0.016l-0.023,0.016l-0.023,0.016l-0.024,0.015l-0.023,0.015l-0.024,0.015l-0.023,0.014l-0.024,0.014l-0.025,0.014l-0.024,0.014l-0.024,0.013l-0.025,0.013l-0.025,0.013l-0.025,0.012l-0.025,0.012l-0.025,0.012l-0.025,0.011l-0.025,0.011l-0.026,0.011l-0.026,0.01l-0.026,0.011l-0.026,0.009l-0.026,0.01l-0.026,0.009l-0.026,0.009l-0.027,0.009l-0.026,0.008l-0.027,0.008l-0.026,0.007l-0.027,0.008l-0.027,0.007l-0.027,0.006l-0.027,0.006l-0.028,0.006l-0.027,0.006l-0.027,0.005l-0.028,0.005l-0.027,0.005l-0.028,0.004l-0.028,0.004l-0.027,0.004l-0.028,0.003l-0.028,0.003l-0.028,0.003l-0.028,0.002l-0.028,0.002l-0.028,0.001l-0.028,0.002l-0.029,0l-0.028,0.001l-0.028,0l-0.028,0l-0.029,-0.001l-0.028,0l-0.028,-0.002l-0.028,-0.001l-0.028,-0.002l-0.028,-0.002l-0.028,-0.003l-0.028,-0.003l-0.028,-0.003l-0.027,-0.004l-0.028,-0.004l-0.028,-0.004l-0.027,-0.005l-0.028,-0.005l-0.027,-0.005l-0.027,-0.006l-0.028,-0.006l-0.027,-0.006l-0.027,-0.006l-0.027,-0.007l-0.027,-0.008l-0.026,-0.007l-0.027,-0.008l-0.027,-0.008l-0.026,-0.009l-0.026,-0.009l-0.026,-0.009l-0.027,-0.01l-0.026,-0.009l-0.025,-0.011l-0.026,-0.01l-0.026,-0.011l-0.025,-0.011l-0.025,-0.011l-0.026,-0.012l-0.025,-0.012l-0.025,-0.012l-0.024,-0.013l-0.025,-0.013l-0.024,-0.013l-0.025,-0.014l-0.024,-0.014l-0.024,-0.014l-0.023,-0.014l-0.024,-0.015l-0.024,-0.015l-0.023,-0.015l-0.023,-0.016l-0.023,-0.016l-0.023,-0.016l-0.022,-0.016l-0.023,-0.017l-0.022,-0.017l-0.022,-0.018l-0.022,-0.017l-0.021,-0.018l-0.022,-0.018l-0.021,-0.019l-0.021,-0.019l-0.02,-0.019l-0.021,-0.019l-0.02,-0.02l-0.02,-0.019l-35.335,-35.335l-0.095,0.078l-0.095,0.078l-0.095,0.077l-0.096,0.078l-0.096,0.077l-0.096,0.077l-0.096,0.076l-0.096,0.077l-0.097,0.076l-0.096,0.076l-0.097,0.075l-0.097,0.076l-0.098,0.075l-0.097,0.075l-0.098,0.074l-0.098,0.075l-0.098,0.074l-0.098,0.074l-0.099,0.073l-0.099,0.074l-0.099,0.073l-0.099,0.073l-0.099,0.072l-0.1,0.073l-0.099,0.072l-0.1,0.072l-0.101,0.071l-0.1,0.071l-0.1,0.072l-0.101,0.07l-0.101,0.071l-0.101,0.07l-0.101,0.07l-0.102,0.07l-0.102,0.07l-0.101,0.069l-0.103,0.069l-0.102,0.069l-0.102,0.068l-0.103,0.068l-0.103,0.068l-0.103,0.068l-0.103,0.067l-0.103,0.067l-0.104,0.067l-0.104,0.067l-0.104,0.066l-0.104,0.066l-0.104,0.066l-0.105,0.066l-0.104,0.065l-0.105,0.065l-0.105,0.065l-0.105,0.064l-0.106,0.064l-0.105,0.064l-0.106,0.064l-0.106,0.063l-0.106,0.064l-0.107,0.062l-0.106,0.063l-0.107,0.062l-0.107,0.062l-0.107,0.062l-0.107,0.062l-0.107,0.061l-0.108,0.061l-0.108,0.06l-0.108,0.061l-0.108,0.06l-0.108,0.06l-0.109,0.059l-0.108,0.06l-0.109,0.059l-0.109,0.058l-0.109,0.059l-0.109,0.058l-0.11,0.058l-0.11,0.057l-0.109,0.058l-0.11,0.057l-0.111,0.056l-0.11,0.057l-0.11,0.056l-0.111,0.056l-0.111,0.055l-0.111,0.056l-0.111,0.055l-0.111,0.055l-0.112,0.054l-0.112,0.054l-0.111,0.054l-0.112,0.054l-0.113,0.053l-0.112,0.053l-0.112,0.053l-0.113,0.052l-0.113,0.052l-0.113,0.052l-0.113,0.052l-0.113,0.051l-0.114,0.051l-0.113,0.051l-0.114,0.05l-0.114,0.05l-0.114,0.05l-0.114,0.05l-0.115,0.049l-0.114,0.049l-0.115,0.048l-0.115,0.049l-0.115,0.048l-0.115,0.047l-0.116,0.048l-0.115,0.047l-0.116,0.047l-0.115,0.046l-0.116,0.047l-0.117,0.046l-0.116,0.045l-0.116,0.046l-0.117,0.045l-0.116,0.044l-0.117,0.045l-0.117,0.044l-0.117,0.044l-0.118,0.043l-0.117,0.043l-0.118,0.043l-0.117,0.043l-0.118,0.042l-0.118,0.042l-0.119,0.042l-0.118,0.041l-0.118,0.041l-0.119,0.041l-0.119,0.04l-0.119,0.041l-0.119,0.039l-0.119,0.04l-0.119,0.039l-0.12,0.039l-0.119,0.039l-0.12,0.038l-0.12,0.038l-0.12,0.037l-0.12,0.038l-0.12,0.037l-0.121,0.036l-0.12,0.037l-0.121,0.036l-0.121,0.036l-0.121,0.035l-0.121,0.035l-0.121,0.035l-0.121,0.034l-0.122,0.035l-0.122,0.033l-0.121,0.034l-0.122,0.033l-0.122,0.033l-0.122,0.033l-0.123,0.032l-0.122,0.032l-0.123,0.031l-0.122,0.032l-0.123,0.03l-0.123,0.031l-0.123,0.03l-0.123,0.03l-0.124,0.03l-0.123,0.029l-0.124,0.029l-0.123,0.029l-0.124,0.028l-0.124,0.028l-0.124,0.028l-0.124,0.027l-0.125,0.027l-0.124,0.027l-0.125,0.026l-0.124,0.026l-0.125,0.026l-0.125,0.025l-0.125,0.025l-0.125,0.025l-0.126,0.024l-0.125,0.024l-0.126,0.024l-0.125,0.023l-0.126,0.024l-0.126,0.022l-0.126,0.023l-0.126,0.022l-0.126,0.021l-0.126,0.022l-0.127,0.021l-0.126,0.02l-0.127,0.021l-0.127,0.02l-0.127,0.019l-0.127,0.019l-0.127,0.019l-0.127,0.019l-0.127,0.018l-0.128,0.018l-0.127,0.018l-0.128,0.017l-0.128,0.017l-0.128,0.017l-0.128,0.016l-0.128,0.016l-0.128,0.015l-0.128,0.015l-0.129,0.015l-0.128,0.015l-0.129,0.014l-0.129,0.013l-0.128,0.014l-0.129,0.013l-0.129,0.013l-0.13,0.012l-0.129,0.012l-0.129,0.012l-0.13,0.011l-0.129,0.011l-0.13,0.011l-0.129,0.01l-0.13,0.01l-0.13,0.01l-0.13,0.009l-0.13,0.009l-0.131,0.008l-0.13,0.008l-0.13,0.008l-0.131,0.007l-0.13,0.007l-0.131,0.007l-0.131,0.007l-0.131,0.006l-0.131,0.005l-0.131,0.005l-0.131,0.005l-0.131,0.005l-0.132,0.004l-0.131,0.004l-0.132,0.003l-0.131,0.004l-0.132,0.002l-0.132,0.003l-0.132,0.002l-0.132,0.001l-0.132,0.002l-0.132,0l-0.132,0.001l-0.132,0l-0.152,0l-0.151,-0.001l-0.151,-0.001l-0.151,-0.002l-0.15,-0.002l-0.151,-0.002l-0.151,-0.003l-0.15,-0.004l-0.15,-0.004l-0.151,-0.005l-0.15,-0.005l-0.15,-0.005l-0.149,-0.006l-0.15,-0.006l-0.15,-0.007l-0.149,-0.008l-0.15,-0.008l-0.149,-0.008l-0.149,-0.009l-0.149,-0.009l-0.149,-0.009l-0.149,-0.011l-0.148,-0.01l-0.149,-0.011l-0.148,-0.012l-0.148,-0.012l-0.148,-0.012l-0.148,-0.013l-0.148,-0.014l-0.148,-0.013l-0.147,-0.015l-0.148,-0.014l-0.147,-0.016l-0.147,-0.015l-0.147,-0.017l-0.147,-0.016l-0.147,-0.017l-0.147,-0.018l-0.146,-0.018l-0.146,-0.018l-0.147,-0.019l-0.146,-0.019l-0.145,-0.02l-0.146,-0.02l-0.146,-0.021l-0.145,-0.021l-0.146,-0.021l-0.145,-0.022l-0.145,-0.023l-0.145,-0.023l-0.145,-0.023l-0.144,-0.024l-0.145,-0.024l-0.144,-0.024l-0.144,-0.026l-0.144,-0.025l-0.144,-0.026l-0.144,-0.026l-0.143,-0.027l-0.144,-0.027l-0.143,-0.028l-0.143,-0.028l-0.143,-0.029l-0.143,-0.029l-0.142,-0.029l-0.143,-0.03l-0.142,-0.031l-0.142,-0.03l-0.142,-0.032l-0.142,-0.031l-0.142,-0.032l-0.141,-0.033l-0.142,-0.033l-0.141,-0.033l-0.141,-0.034l-0.141,-0.034l-0.14,-0.034l-0.141,-0.035l-0.14,-0.036l-0.14,-0.036l-0.14,-0.036l-0.14,-0.037l-0.14,-0.037l-0.139,-0.037l-0.14,-0.038l-0.139,-0.039l-0.139,-0.039l-0.139,-0.039l-0.138,-0.039l-0.139,-0.04l-0.138,-0.041l-0.138,-0.041l-0.138,-0.041l-0.138,-0.042l-0.137,-0.042l-0.138,-0.043l-0.137,-0.042l-0.137,-0.044l-0.137,-0.044l-0.136,-0.044l-0.137,-0.044l-0.136,-0.045l-0.136,-0.046l-0.136,-0.046l-0.136,-0.046l-0.136,-0.046l-0.135,-0.047l-0.135,-0.048l-0.135,-0.048l-0.135,-0.048l-0.134,-0.048l-0.135,-0.049l-0.134,-0.05l-0.134,-0.05l-0.134,-0.05l-0.134,-0.051l-0.133,-0.051l-0.133,-0.051l-0.133,-0.052l-0.133,-0.052l-0.133,-0.053l-0.132,-0.053l-0.133,-0.053l-0.132,-0.054l-0.132,-0.054l-0.131,-0.054l-0.132,-0.055l-0.131,-0.056l-0.131,-0.055l-0.131,-0.056l-0.131,-0.057l-0.13,-0.057l-0.13,-0.057l-0.13,-0.058l-0.13,-0.058l-0.13,-0.058l-0.129,-0.059l-0.129,-0.059l-0.129,-0.06l-0.129,-0.06l-0.129,-0.06l-0.128,-0.06l-0.128,-0.062l-0.128,-0.061l-0.128,-0.062l-0.127,-0.062l-0.128,-0.063l-0.127,-0.063l-0.126,-0.063l-0.127,-0.063l-0.126,-0.065l-0.127,-0.064l-0.126,-0.065l-0.125,-0.065l-0.126,-0.065l-0.125,-0.066l-0.125,-0.067l-0.125,-0.066l-0.125,-0.067l-0.124,-0.068l-0.124,-0.067l-0.124,-0.068l-0.124,-0.069l-0.123,-0.069l-0.124,-0.069l-0.123,-0.07l-0.123,-0.069l-0.122,-0.071l-0.122,-0.07l-0.123,-0.071l-0.121,-0.072l-0.122,-0.071l-0.121,-0.072l-0.122,-0.073l-0.121,-0.073l-0.12,-0.073l-0.121,-0.073l-0.12,-0.074l-0.12,-0.074l-0.12,-0.075l-0.119,-0.075l-0.119,-0.075l-0.119,-0.075l-0.119,-0.076l-0.119,-0.077l-0.118,-0.076l-0.118,-0.077l-0.118,-0.077l-0.117,-0.078l-0.118,-0.078l-0.117,-0.078l-0.116,-0.079l-0.117,-0.079l-0.116,-0.079l-0.116,-0.08l-0.116,-0.08l-0.116,-0.081l-0.115,-0.08l-0.115,-0.081l-0.115,-0.082l-0.114,-0.081l-0.115,-0.083l-0.114,-0.082l-0.113,-0.083l-0.114,-0.083l-0.113,-0.083l-0.113,-0.084l-0.113,-0.084l-0.112,-0.084l-0.112,-0.085l-0.112,-0.085l-0.112,-0.085l-0.111,-0.086l-0.112,-0.086l-0.11,-0.087l-0.111,-0.086l-0.11,-0.087l-0.11,-0.088l-0.11,-0.087l-0.11,-0.088l-0.109,-0.088l-0.109,-0.089l-0.109,-0.089l-0.108,-0.089l-0.108,-0.09l-0.108,-0.09l-0.108,-0.09l-0.107,-0.09l-0.107,-0.091l-0.107,-0.091l-0.107,-0.092l-0.106,-0.092l-0.106,-0.092l-0.106,-0.092l-0.105,-0.093l-0.105,-0.093l-0.105,-0.093l-0.105,-0.094l-0.104,-0.094l-0.104,-0.094l-0.104,-0.095l-0.103,-0.095l-0.103,-0.095l-0.103,-0.095l-0.103,-0.096l-0.102,-0.096l-0.102,-0.096l-0.102,-0.097l-0.101,-0.097l-0.101,-0.097l-0.101,-0.098l-0.101,-0.098l-0.1,-0.098l-0.1,-0.099l-0.1,-0.098l-0.099,-0.1l-0.099,-0.099l-0.099,-0.1l-0.099,-0.1l-0.098,-0.1l-0.098,-0.1l-0.097,-0.101l-0.098,-0.101l-0.097,-0.102l-0.096,-0.102l-0.097,-0.102l-0.096,-0.102l-0.096,-0.102l-0.095,-0.103l-0.095,-0.104l-0.095,-0.103l-0.095,-0.104l-0.094,-0.104l-0.094,-0.104l-0.094,-0.105l-0.093,-0.104l-0.093,-0.106l-0.093,-0.105l-0.092,-0.106l-0.092,-0.106l-0.092,-0.106l-0.091,-0.106l-0.092,-0.107l-0.09,-0.107l-0.091,-0.108l-0.09,-0.107l-0.09,-0.108l-0.09,-0.108l-0.089,-0.109l-0.089,-0.109l-0.088,-0.109l-0.089,-0.109l-0.088,-0.109l-0.087,-0.11l-0.088,-0.11l-0.087,-0.111l-0.086,-0.11l-0.087,-0.111l-0.086,-0.111l-0.085,-0.112l-0.086,-0.111l-0.085,-0.112l-0.084,-0.113l-0.085,-0.112l-0.084,-0.113l-0.084,-0.113l-0.083,-0.113l-0.083,-0.113l-0.083,-0.114l-0.082,-0.114l-0.082,-0.115l-0.082,-0.114l-0.081,-0.115l-0.081,-0.115l-0.081,-0.115l-0.081,-0.116l-0.08,-0.115l-0.079,-0.117l-0.08,-0.116l-0.079,-0.116l-0.078,-0.117l-0.079,-0.117l-0.078,-0.118l-0.077,-0.117l-0.078,-0.118l-0.077,-0.118l-0.076,-0.118l-0.077,-0.119l-0.075,-0.118l-0.076,-0.119l-0.075,-0.12l-0.075,-0.119l-0.075,-0.12l-0.074,-0.12l-0.074,-0.12l-0.073,-0.121l-0.073,-0.12l-0.073,-0.121l-0.072,-0.121l-0.072,-0.122l-0.072,-0.121l-0.071,-0.122l-0.071,-0.122l-0.071,-0.123l-0.07,-0.122l-0.07,-0.123l-0.07,-0.123l-0.069,-0.123l-0.069,-0.124l-0.068,-0.124l-0.068,-0.124l-0.068,-0.124l-0.067,-0.124l-0.067,-0.125l-0.067,-0.125l-0.066,-0.125l-0.066,-0.125l-0.066,-0.125l-0.065,-0.126l-0.065,-0.126l-0.064,-0.126l-0.064,-0.127l-0.064,-0.126l-0.063,-0.127l-0.063,-0.127l-0.063,-0.128l-0.062,-0.127l-0.062,-0.128l-0.061,-0.128l-0.061,-0.128l-0.061,-0.128l-0.06,-0.129l-0.06,-0.128l-0.06,-0.129l-0.059,-0.13l-0.059,-0.129l-0.058,-0.13l-0.058,-0.13l-0.058,-0.13l-0.057,-0.13l-0.057,-0.13l-0.056,-0.131l-0.056,-0.131l-0.056,-0.131l-0.055,-0.131l-0.055,-0.132l-0.055,-0.131l-0.054,-0.132l-0.054,-0.132l-0.053,-0.132l-0.053,-0.133l-0.053,-0.133l-0.052,-0.132l-0.052,-0.133l-0.051,-0.134l-0.051,-0.133l-0.051,-0.134l-0.05,-0.134l-0.05,-0.134l-0.049,-0.134l-0.049,-0.134l-0.049,-0.135l-0.048,-0.135l-0.048,-0.135l-0.047,-0.135l-0.047,-0.135l-0.047,-0.136l-0.046,-0.136l-0.046,-0.135l-0.045,-0.137l-0.045,-0.136l-0.045,-0.136l-0.044,-0.137l-0.044,-0.137l-0.043,-0.137l-0.043,-0.137l-0.043,-0.137l-0.042,-0.138l-0.042,-0.138l-0.041,-0.138l-0.041,-0.138l-0.04,-0.138l-0.04,-0.139l-0.04,-0.138l-0.039,-0.139l-0.039,-0.139l-0.038,-0.139l-0.038,-0.139l-0.038,-0.14l-0.037,-0.14l-0.037,-0.139l-0.036,-0.14l-0.036,-0.141l-0.035,-0.14l-0.035,-0.14l-0.035,-0.141l-0.034,-0.141l-0.034,-0.141l-0.033,-0.141l-0.033,-0.142l-0.033,-0.141l-0.032,-0.142l-0.031,-0.142l-0.031,-0.141l-0.031,-0.143l-0.031,-0.142l-0.029,-0.142l-0.03,-0.143l-0.029,-0.143l-0.028,-0.143l-0.029,-0.143l-0.027,-0.143l-0.028,-0.143l-0.026,-0.144l-0.027,-0.144l-0.026,-0.144l-0.025,-0.144l-0.025,-0.144l-0.025,-0.144l-0.024,-0.145l-0.024,-0.144l-0.023,-0.145l-0.023,-0.145l-0.023,-0.145l-0.022,-0.145l-0.021,-0.145l-0.021,-0.146l-0.021,-0.146l-0.02,-0.145l-0.02,-0.146l-0.019,-0.146l-0.019,-0.146l-0.018,-0.147l-0.018,-0.146l-0.018,-0.147l-0.017,-0.147l-0.016,-0.147l-0.016,-0.147l-0.016,-0.147l-0.015,-0.147l-0.015,-0.147l-0.014,-0.148l-0.014,-0.148l-0.014,-0.148l-0.012,-0.147l-0.013,-0.149l-0.012,-0.148l-0.011,-0.148l-0.012,-0.149l-0.01,-0.148l-0.01,-0.149l-0.01,-0.149l-0.009,-0.149l-0.009,-0.149l-0.008,-0.149l-0.008,-0.149l-0.007,-0.15l-0.007,-0.15l-0.007,-0.149l-0.006,-0.15l-0.005,-0.15l-0.005,-0.15l-0.005,-0.15l-0.004,-0.151l-0.003,-0.15l-0.003,-0.151l-0.003,-0.15l-0.002,-0.151l-0.002,-0.151l-0.001,-0.151l-0.001,-0.151l0,-0.151l0,-0.152l0.001,-0.151l0.001,-0.151l0.002,-0.151l0.002,-0.15l0.003,-0.151l0.003,-0.151l0.003,-0.15l0.004,-0.15l0.005,-0.151l0.005,-0.15l0.005,-0.15l0.006,-0.149l0.007,-0.15l0.007,-0.15l0.007,-0.149l0.008,-0.15l0.008,-0.149l0.009,-0.149l0.009,-0.149l0.01,-0.149l0.01,-0.149l0.01,-0.148l0.012,-0.149l0.011,-0.148l0.012,-0.148l0.013,-0.148l0.012,-0.148l0.014,-0.148l0.014,-0.148l0.014,-0.147l0.015,-0.148l0.015,-0.147l0.016,-0.147l0.016,-0.147l0.016,-0.147l0.017,-0.147l0.018,-0.147l0.018,-0.146l0.018,-0.146l0.019,-0.147l0.019,-0.146l0.02,-0.145l0.02,-0.146l0.021,-0.146l0.021,-0.145l0.021,-0.146l0.022,-0.145l0.023,-0.145l0.023,-0.145l0.023,-0.145l0.024,-0.144l0.024,-0.145l0.025,-0.144l0.025,-0.144l0.025,-0.144l0.026,-0.144l0.027,-0.144l0.026,-0.143l0.028,-0.144l0.027,-0.143l0.029,-0.143l0.028,-0.143l0.029,-0.143l0.03,-0.142l0.029,-0.143l0.031,-0.142l0.031,-0.142l0.031,-0.142l0.031,-0.142l0.032,-0.142l0.033,-0.141l0.033,-0.142l0.033,-0.141l0.034,-0.141l0.034,-0.141l0.035,-0.14l0.035,-0.141l0.035,-0.14l0.036,-0.14l0.036,-0.14l0.037,-0.14l0.037,-0.14l0.038,-0.139l0.038,-0.14l0.038,-0.139l0.039,-0.139l0.039,-0.139l0.04,-0.138l0.04,-0.139l0.04,-0.138l0.041,-0.138l0.041,-0.138l0.042,-0.138l0.042,-0.137l0.043,-0.138l0.043,-0.137l0.043,-0.137l0.044,-0.137l0.044,-0.136l0.045,-0.137l0.045,-0.136l0.045,-0.136l0.046,-0.136l0.046,-0.136l0.047,-0.136l0.047,-0.135l0.047,-0.135l0.048,-0.135l0.048,-0.135l0.049,-0.134l0.049,-0.135l0.049,-0.134l0.05,-0.134l0.05,-0.134l0.051,-0.134l0.051,-0.133l0.051,-0.133l0.052,-0.133l0.052,-0.133l0.053,-0.133l0.053,-0.132l0.053,-0.133l0.054,-0.132l0.054,-0.132l0.055,-0.131l0.055,-0.132l0.055,-0.131l0.056,-0.131l0.056,-0.131l0.056,-0.131l0.057,-0.13l0.057,-0.13l0.058,-0.13l0.058,-0.13l0.058,-0.13l0.059,-0.129l0.059,-0.129l0.06,-0.129l0.06,-0.129l0.06,-0.129l0.061,-0.128l0.061,-0.128l0.061,-0.128l0.062,-0.128l0.062,-0.127l0.063,-0.128l0.063,-0.127l0.063,-0.126l0.064,-0.127l0.064,-0.126l0.064,-0.127l0.065,-0.126l0.065,-0.125l0.066,-0.126l0.066,-0.125l0.066,-0.125l0.067,-0.125l0.067,-0.125l0.067,-0.124l0.068,-0.124l0.068,-0.124l0.068,-0.124l0.069,-0.123l0.069,-0.124l0.07,-0.123l0.07,-0.123l0.07,-0.122l0.071,-0.122l0.071,-0.123l0.071,-0.121l0.072,-0.122l0.072,-0.121l0.072,-0.122l0.073,-0.121l0.073,-0.12l0.073,-0.121l0.074,-0.12l0.074,-0.12l0.075,-0.12l0.075,-0.119l0.075,-0.119l0.076,-0.119l0.075,-0.119l0.077,-0.119l0.076,-0.118l0.077,-0.118l0.078,-0.118l0.077,-0.117l0.078,-0.118l0.079,-0.117l0.078,-0.116l0.079,-0.117l0.08,-0.116l0.079,-0.116l0.08,-0.116l0.081,-0.116l0.081,-0.115l0.081,-0.115l0.081,-0.115l0.082,-0.114l0.082,-0.115l0.082,-0.114l0.083,-0.113l0.083,-0.114l0.083,-0.113l0.084,-0.113l0.084,-0.113l0.085,-0.112l0.084,-0.112l0.085,-0.112l0.086,-0.112l0.085,-0.111l0.086,-0.112l0.087,-0.11l0.086,-0.111l0.087,-0.11l0.088,-0.11l0.087,-0.11l0.088,-0.11l0.089,-0.109l0.088,-0.109l0.089,-0.109l0.089,-0.108l0.09,-0.108l0.09,-0.108l0.09,-0.108l0.091,-0.107l0.09,-0.107l0.092,-0.107l0.091,-0.107l0.092,-0.106l0.092,-0.106l0.092,-0.106l0.093,-0.105l0.093,-0.105l0.093,-0.105l0.094,-0.105l0.094,-0.104l0.094,-0.104l0.095,-0.104l0.095,-0.103l0.095,-0.103l0.095,-0.103l0.096,-0.103l0.096,-0.102l0.097,-0.102l0.096,-0.102l0.097,-0.101l0.098,-0.101l0.097,-0.101l0.098,-0.101l0.098,-0.1l0.099,-0.1l0.099,-0.1l0.099,-0.099l0.099,-0.099l0.1,-0.099l0.1,-0.099l0.1,-0.098l0.101,-0.098l0.101,-0.097l0.101,-0.098l0.101,-0.097l0.102,-0.096l0.102,-0.097l0.102,-0.096l0.103,-0.096l0.103,-0.095l0.103,-0.095l0.103,-0.095l0.104,-0.095l0.104,-0.094l0.104,-0.094l0.105,-0.094l0.105,-0.093l0.105,-0.093l0.105,-0.093l0.106,-0.092l0.106,-0.092l0.106,-0.092l0.107,-0.091l0.107,-0.092l0.107,-0.09l0.107,-0.091l0.108,-0.09l0.108,-0.09l0.108,-0.09l0.108,-0.089l0.109,-0.089l0.109,-0.088l0.109,-0.089l0.11,-0.088l0.11,-0.087l0.11,-0.088l0.11,-0.087l0.111,-0.086l0.11,-0.087l0.112,-0.086l0.111,-0.085l0.112,-0.086l0.112,-0.085l0.112,-0.084l0.112,-0.085l0.113,-0.084l0.113,-0.084l0.113,-0.083l0.114,-0.083l0.113,-0.083l0.114,-0.082l0.115,-0.082l0.114,-0.082l0.115,-0.081l0.115,-0.081l0.115,-0.081l0.116,-0.081l0.116,-0.08l0.116,-0.079l0.116,-0.08l0.117,-0.079l0.116,-0.078l0.117,-0.079l0.118,-0.078l0.117,-0.077l0.118,-0.078l0.118,-0.077l0.118,-0.076l0.119,-0.077l0.119,-0.075l0.119,-0.076l0.119,-0.075l0.119,-0.075l0.12,-0.075l0.12,-0.074l0.12,-0.074l0.121,-0.073l0.12,-0.073l0.121,-0.073l0.122,-0.072l0.121,-0.072l0.122,-0.072l0.121,-0.071l0.123,-0.071l0.122,-0.071l0.122,-0.07l0.123,-0.07l0.123,-0.07l0.124,-0.069l0.123,-0.069l0.124,-0.068l0.124,-0.068l0.124,-0.068l0.124,-0.067l0.125,-0.067l0.125,-0.067l0.125,-0.066l0.125,-0.066l0.126,-0.066l0.125,-0.065l0.126,-0.065l0.127,-0.064l0.126,-0.064l0.127,-0.064l0.126,-0.063l0.127,-0.063l0.128,-0.063l0.127,-0.062l0.128,-0.062l0.128,-0.061l0.128,-0.061l0.128,-0.061l0.129,-0.06l0.129,-0.06l0.129,-0.06l0.129,-0.059l0.129,-0.059l0.13,-0.058l0.13,-0.058l0.13,-0.058l0.13,-0.057l0.13,-0.057l0.131,-0.056l0.131,-0.056l0.131,-0.056l0.131,-0.055l0.132,-0.055l0.131,-0.055l0.132,-0.054l0.132,-0.054l0.133,-0.053l0.132,-0.053l0.133,-0.053l0.133,-0.052l0.133,-0.052l0.133,-0.051l0.133,-0.051l0.134,-0.051l0.134,-0.05l0.134,-0.05l0.134,-0.049l0.135,-0.049l0.134,-0.049l0.135,-0.048l0.135,-0.048l0.135,-0.047l0.135,-0.047l0.136,-0.047l0.136,-0.046l0.136,-0.046l0.136,-0.045l0.136,-0.045l0.137,-0.045l0.136,-0.044l0.137,-0.044l0.137,-0.043l0.137,-0.043l0.138,-0.043l0.137,-0.042l0.138,-0.042l0.138,-0.041l0.138,-0.041l0.138,-0.04l0.139,-0.04l0.138,-0.04l0.139,-0.039l0.139,-0.039l0.139,-0.038l0.14,-0.038l0.139,-0.038l0.14,-0.037l0.14,-0.037l0.14,-0.036l0.14,-0.036l0.14,-0.035l0.141,-0.035l0.14,-0.035l0.141,-0.034l0.141,-0.034l0.141,-0.033l0.142,-0.033l0.141,-0.033l0.142,-0.032l0.142,-0.031l0.142,-0.031l0.142,-0.031l0.142,-0.031l0.143,-0.029l0.142,-0.03l0.143,-0.029l0.143,-0.028l0.143,-0.029l0.143,-0.027l0.144,-0.028l0.143,-0.026l0.144,-0.027l0.144,-0.026l0.144,-0.025l0.144,-0.025l0.144,-0.025l0.145,-0.024l0.144,-0.024l0.145,-0.023l0.145,-0.023l0.145,-0.023l0.145,-0.022l0.146,-0.021l0.145,-0.021l0.146,-0.021l0.146,-0.02l0.145,-0.02l0.146,-0.019l0.147,-0.019l0.146,-0.018l0.146,-0.018l0.147,-0.018l0.147,-0.017l0.147,-0.016l0.147,-0.016l0.147,-0.016l0.147,-0.015l0.148,-0.015l0.147,-0.014l0.148,-0.014l0.148,-0.014l0.148,-0.012l0.148,-0.013l0.148,-0.012l0.148,-0.011l0.149,-0.012l0.148,-0.01l0.149,-0.01l0.149,-0.01l0.149,-0.009l0.149,-0.009l0.149,-0.008l0.15,-0.008l0.149,-0.007l0.15,-0.007l0.15,-0.007l0.149,-0.006l0.15,-0.005l0.15,-0.005l0.151,-0.005l0.15,-0.004l0.15,-0.003l0.151,-0.003l0.151,-0.003l0.15,-0.002l0.151,-0.002l0.151,-0.001l0.151,-0.001l0.152,0l0.151,0Zm-0.277,8l-0.126,0.001l-0.126,0.001l-0.125,0.001l-0.126,0.002l-0.125,0.002l-0.125,0.003l-0.125,0.003l-0.125,0.003l-0.125,0.004l-0.125,0.004l-0.124,0.005l-0.125,0.004l-0.124,0.006l-0.125,0.006l-0.124,0.006l-0.124,0.006l-0.124,0.007l-0.124,0.007l-0.123,0.008l-0.124,0.008l-0.123,0.008l-0.124,0.009l-0.123,0.009l-0.123,0.01l-0.123,0.01l-0.123,0.01l-0.123,0.011l-0.122,0.011l-0.123,0.012l-0.122,0.011l-0.122,0.013l-0.123,0.012l-0.122,0.013l-0.122,0.014l-0.121,0.013l-0.122,0.015l-0.122,0.014l-0.121,0.015l-0.121,0.015l-0.121,0.016l-0.122,0.016l-0.12,0.016l-0.121,0.017l-0.121,0.017l-0.12,0.017l-0.121,0.018l-0.12,0.018l-0.12,0.019l-0.12,0.019l-0.12,0.019l-0.12,0.02l-0.12,0.02l-0.119,0.02l-0.12,0.021l-0.119,0.021l-0.119,0.022l-0.119,0.022l-0.119,0.022l-0.119,0.022l-0.118,0.023l-0.119,0.024l-0.118,0.023l-0.118,0.024l-0.118,0.025l-0.118,0.025l-0.118,0.025l-0.118,0.025l-0.117,0.026l-0.118,0.026l-0.117,0.027l-0.117,0.026l-0.117,0.028l-0.117,0.027l-0.117,0.028l-0.116,0.028l-0.117,0.029l-0.116,0.029l-0.116,0.029l-0.116,0.03l-0.116,0.03l-0.116,0.031l-0.115,0.03l-0.116,0.031l-0.115,0.032l-0.115,0.032l-0.115,0.032l-0.115,0.032l-0.115,0.033l-0.114,0.033l-0.115,0.034l-0.114,0.033l-0.114,0.035l-0.114,0.034l-0.114,0.035l-0.114,0.035l-0.113,0.036l-0.114,0.036l-0.113,0.036l-0.113,0.036l-0.113,0.037l-0.113,0.038l-0.112,0.037l-0.113,0.038l-0.112,0.038l-0.112,0.039l-0.112,0.039l-0.112,0.039l-0.112,0.04l-0.112,0.039l-0.111,0.041l-0.111,0.04l-0.111,0.041l-0.111,0.041l-0.111,0.042l-0.111,0.042l-0.11,0.042l-0.111,0.043l-0.11,0.043l-0.11,0.043l-0.109,0.043l-0.11,0.044l-0.11,0.044l-0.109,0.045l-0.109,0.045l-0.109,0.045l-0.109,0.045l-0.109,0.046l-0.108,0.046l-0.109,0.047l-0.108,0.046l-0.108,0.048l-0.108,0.047l-0.107,0.048l-0.108,0.048l-0.107,0.048l-0.107,0.049l-0.107,0.049l-0.107,0.049l-0.107,0.05l-0.106,0.05l-0.107,0.05l-0.106,0.05l-0.106,0.051l-0.105,0.052l-0.106,0.051l-0.105,0.052l-0.106,0.052l-0.105,0.052l-0.105,0.053l-0.104,0.053l-0.105,0.054l-0.104,0.053l-0.104,0.054l-0.104,0.055l-0.104,0.054l-0.104,0.055l-0.103,0.055l-0.104,0.056l-0.103,0.056l-0.103,0.056l-0.102,0.056l-0.103,0.057l-0.102,0.057l-0.102,0.057l-0.102,0.058l-0.102,0.058l-0.102,0.058l-0.101,0.059l-0.101,0.059l-0.101,0.059l-0.101,0.059l-0.101,0.06l-0.1,0.06l-0.101,0.06l-0.1,0.061l-0.1,0.061l-0.099,0.061l-0.1,0.062l-0.099,0.061l-0.099,0.062l-0.099,0.063l-0.099,0.063l-0.098,0.062l-0.098,0.064l-0.099,0.063l-0.097,0.064l-0.098,0.064l-0.098,0.065l-0.097,0.064l-0.097,0.065l-0.097,0.066l-0.097,0.065l-0.096,0.066l-0.096,0.066l-0.096,0.066l-0.096,0.067l-0.096,0.067l-0.095,0.067l-0.096,0.068l-0.095,0.068l-0.094,0.068l-0.095,0.068l-0.094,0.069l-0.094,0.069l-0.094,0.069l-0.094,0.069l-0.094,0.07l-0.093,0.07l-0.093,0.07l-0.093,0.071l-0.093,0.071l-0.092,0.071l-0.092,0.071l-0.092,0.072l-0.092,0.072l-0.092,0.072l-0.091,0.073l-0.091,0.072l-0.091,0.073l-0.091,0.074l-0.09,0.073l-0.091,0.074l-0.09,0.074l-0.089,0.075l-0.09,0.074l-0.089,0.075l-0.09,0.075l-0.088,0.076l-0.089,0.075l-0.089,0.076l-0.088,0.076l-0.088,0.077l-0.087,0.077l-0.088,0.076l-0.087,0.078l-0.087,0.077l-0.087,0.078l-0.087,0.078l-0.086,0.078l-0.086,0.079l-0.086,0.078l-0.086,0.08l-0.085,0.079l-0.085,0.079l-0.085,0.08l-0.085,0.08l-0.084,0.08l-0.085,0.081l-0.084,0.081l-0.083,0.081l-0.084,0.081l-0.083,0.082l-0.083,0.081l-0.083,0.082l-0.082,0.083l-0.083,0.082l-0.082,0.083l-0.081,0.083l-0.082,0.083l-0.081,0.084l-0.081,0.083l-0.081,0.084l-0.081,0.085l-0.08,0.084l-0.08,0.085l-0.08,0.085l-0.079,0.085l-0.079,0.085l-0.08,0.086l-0.078,0.086l-0.079,0.086l-0.078,0.086l-0.078,0.087l-0.078,0.087l-0.077,0.087l-0.078,0.087l-0.076,0.088l-0.077,0.087l-0.077,0.088l-0.076,0.088l-0.076,0.089l-0.075,0.089l-0.076,0.088l-0.075,0.09l-0.075,0.089l-0.074,0.09l-0.075,0.089l-0.074,0.09l-0.074,0.091l-0.073,0.09l-0.074,0.091l-0.073,0.091l-0.072,0.091l-0.073,0.091l-0.072,0.092l-0.072,0.092l-0.072,0.092l-0.071,0.092l-0.071,0.092l-0.071,0.093l-0.071,0.093l-0.07,0.093l-0.07,0.093l-0.07,0.094l-0.069,0.094l-0.069,0.094l-0.069,0.094l-0.069,0.094l-0.068,0.095l-0.068,0.094l-0.068,0.095l-0.068,0.096l-0.067,0.095l-0.067,0.096l-0.067,0.096l-0.066,0.096l-0.066,0.096l-0.066,0.096l-0.065,0.097l-0.066,0.097l-0.065,0.097l-0.064,0.097l-0.065,0.098l-0.064,0.098l-0.064,0.097l-0.063,0.099l-0.064,0.098l-0.062,0.098l-0.063,0.099l-0.063,0.099l-0.062,0.099l-0.061,0.099l-0.062,0.1l-0.061,0.099l-0.061,0.1l-0.061,0.1l-0.06,0.101l-0.06,0.1l-0.06,0.101l-0.059,0.101l-0.059,0.101l-0.059,0.101l-0.059,0.101l-0.058,0.102l-0.058,0.102l-0.058,0.102l-0.057,0.102l-0.057,0.102l-0.057,0.103l-0.056,0.102l-0.056,0.103l-0.056,0.103l-0.056,0.104l-0.055,0.103l-0.055,0.104l-0.054,0.104l-0.055,0.104l-0.054,0.104l-0.053,0.104l-0.054,0.105l-0.053,0.104l-0.053,0.105l-0.052,0.105l-0.052,0.106l-0.052,0.105l-0.051,0.106l-0.052,0.105l-0.051,0.106l-0.05,0.106l-0.05,0.107l-0.05,0.106l-0.05,0.107l-0.049,0.107l-0.049,0.107l-0.049,0.107l-0.048,0.107l-0.048,0.108l-0.048,0.107l-0.047,0.108l-0.048,0.108l-0.046,0.108l-0.047,0.109l-0.046,0.108l-0.046,0.109l-0.045,0.109l-0.045,0.109l-0.045,0.109l-0.045,0.109l-0.044,0.11l-0.044,0.11l-0.043,0.109l-0.043,0.11l-0.043,0.11l-0.043,0.111l-0.042,0.11l-0.042,0.111l-0.042,0.111l-0.041,0.111l-0.041,0.111l-0.04,0.111l-0.041,0.111l-0.039,0.112l-0.04,0.112l-0.039,0.112l-0.039,0.112l-0.039,0.112l-0.038,0.112l-0.038,0.113l-0.037,0.112l-0.038,0.113l-0.037,0.113l-0.036,0.113l-0.036,0.113l-0.036,0.114l-0.036,0.113l-0.035,0.114l-0.035,0.114l-0.034,0.114l-0.035,0.114l-0.033,0.114l-0.034,0.115l-0.033,0.114l-0.033,0.115l-0.032,0.115l-0.032,0.115l-0.032,0.115l-0.032,0.115l-0.031,0.116l-0.03,0.115l-0.031,0.116l-0.03,0.116l-0.03,0.116l-0.029,0.116l-0.029,0.116l-0.029,0.117l-0.028,0.116l-0.028,0.117l-0.027,0.117l-0.028,0.117l-0.026,0.117l-0.027,0.117l-0.026,0.118l-0.026,0.117l-0.025,0.118l-0.025,0.118l-0.025,0.118l-0.025,0.118l-0.024,0.118l-0.023,0.118l-0.024,0.119l-0.023,0.118l-0.022,0.119l-0.022,0.119l-0.022,0.119l-0.022,0.119l-0.021,0.119l-0.021,0.12l-0.02,0.119l-0.02,0.12l-0.02,0.12l-0.019,0.12l-0.019,0.12l-0.019,0.12l-0.018,0.12l-0.018,0.121l-0.017,0.12l-0.017,0.121l-0.017,0.121l-0.016,0.12l-0.016,0.122l-0.016,0.121l-0.015,0.121l-0.015,0.121l-0.014,0.122l-0.015,0.122l-0.013,0.121l-0.014,0.122l-0.013,0.122l-0.012,0.123l-0.013,0.122l-0.011,0.122l-0.012,0.123l-0.011,0.122l-0.011,0.123l-0.01,0.123l-0.01,0.123l-0.01,0.123l-0.009,0.123l-0.009,0.124l-0.008,0.123l-0.008,0.124l-0.008,0.123l-0.007,0.124l-0.007,0.124l-0.006,0.124l-0.006,0.124l-0.006,0.125l-0.006,0.124l-0.004,0.125l-0.005,0.124l-0.004,0.125l-0.004,0.125l-0.003,0.125l-0.003,0.125l-0.003,0.125l-0.002,0.125l-0.002,0.126l-0.001,0.125l-0.001,0.126l-0.001,0.126l0,0.126l0,0.125l0.001,0.126l0.001,0.126l0.001,0.125l0.002,0.126l0.002,0.125l0.003,0.125l0.003,0.125l0.003,0.125l0.004,0.125l0.004,0.125l0.005,0.125l0.004,0.124l0.006,0.125l0.006,0.124l0.006,0.124l0.006,0.124l0.007,0.124l0.007,0.124l0.008,0.123l0.008,0.124l0.008,0.124l0.009,0.123l0.009,0.123l0.01,0.123l0.01,0.123l0.01,0.123l0.011,0.123l0.011,0.123l0.012,0.122l0.011,0.122l0.013,0.123l0.012,0.122l0.013,0.122l0.014,0.122l0.013,0.122l0.015,0.121l0.014,0.122l0.015,0.121l0.015,0.122l0.016,0.121l0.016,0.121l0.016,0.121l0.017,0.12l0.017,0.121l0.017,0.121l0.018,0.12l0.018,0.12l0.019,0.121l0.019,0.12l0.019,0.12l0.02,0.119l0.02,0.12l0.02,0.119l0.021,0.12l0.021,0.119l0.022,0.119l0.022,0.119l0.022,0.119l0.022,0.119l0.023,0.118l0.024,0.119l0.023,0.118l0.024,0.118l0.025,0.119l0.025,0.117l0.025,0.118l0.025,0.118l0.026,0.118l0.026,0.117l0.027,0.117l0.026,0.117l0.028,0.117l0.027,0.117l0.028,0.117l0.028,0.116l0.029,0.117l0.029,0.116l0.029,0.116l0.03,0.116l0.03,0.116l0.031,0.116l0.03,0.115l0.031,0.116l0.032,0.115l0.032,0.115l0.032,0.115l0.032,0.115l0.033,0.115l0.033,0.115l0.034,0.114l0.033,0.114l0.035,0.114l0.034,0.114l0.035,0.114l0.035,0.114l0.036,0.114l0.036,0.113l0.036,0.113l0.036,0.113l0.037,0.113l0.037,0.113l0.038,0.113l0.038,0.112l0.038,0.113l0.039,0.112l0.039,0.112l0.039,0.112l0.04,0.111l0.039,0.112l0.041,0.111l0.04,0.112l0.041,0.111l0.041,0.111l0.042,0.11l0.042,0.111l0.042,0.11l0.043,0.111l0.043,0.11l0.043,0.11l0.043,0.11l0.044,0.109l0.044,0.11l0.045,0.109l0.045,0.109l0.045,0.109l0.045,0.109l0.046,0.109l0.046,0.108l0.047,0.109l0.046,0.108l0.048,0.108l0.047,0.108l0.048,0.107l0.048,0.108l0.048,0.107l0.049,0.107l0.049,0.107l0.049,0.107l0.05,0.107l0.05,0.106l0.05,0.107l0.05,0.106l0.051,0.106l0.052,0.106l0.051,0.105l0.052,0.106l0.052,0.105l0.052,0.105l0.053,0.105l0.053,0.105l0.054,0.104l0.053,0.105l0.054,0.104l0.055,0.104l0.054,0.104l0.055,0.103l0.055,0.104l0.056,0.103l0.056,0.103l0.056,0.103l0.056,0.103l0.057,0.102l0.057,0.102l0.057,0.103l0.058,0.102l0.058,0.101l0.058,0.102l0.059,0.101l0.059,0.102l0.059,0.101l0.059,0.101l0.06,0.1l0.06,0.101l0.06,0.1l0.061,0.1l0.061,0.1l0.061,0.099l0.062,0.1l0.061,0.099l0.062,0.099l0.063,0.099l0.062,0.099l0.063,0.098l0.064,0.099l0.063,0.098l0.064,0.098l0.064,0.097l0.065,0.098l0.064,0.097l0.065,0.097l0.066,0.097l0.065,0.097l0.066,0.096l0.066,0.096l0.066,0.097l0.067,0.095l0.067,0.096l0.067,0.095l0.068,0.096l0.068,0.095l0.068,0.095l0.068,0.094l0.069,0.095l0.069,0.094l0.069,0.094l0.069,0.093l0.07,0.094l0.07,0.093l0.07,0.093l0.071,0.093l0.071,0.093l0.071,0.092l0.071,0.093l0.072,0.092l0.072,0.091l0.072,0.092l0.073,0.091l0.072,0.092l0.073,0.09l0.074,0.091l0.073,0.091l0.074,0.09l0.074,0.09l0.075,0.09l0.074,0.089l0.075,0.09l0.075,0.089l0.076,0.089l0.075,0.088l0.076,0.089l0.076,0.088l0.077,0.088l0.077,0.088l0.076,0.087l0.078,0.087l0.077,0.088l0.078,0.086l0.078,0.087l0.078,0.086l0.079,0.086l0.078,0.086l0.08,0.086l0.079,0.085l0.079,0.085l0.08,0.085l0.08,0.085l0.08,0.085l0.081,0.084l0.081,0.084l0.081,0.084l0.081,0.083l0.082,0.083l0.081,0.083l0.082,0.083l0.083,0.083l0.082,0.082l0.083,0.082l0.083,0.082l0.083,0.081l0.084,0.081l0.083,0.082l0.084,0.08l0.085,0.081l0.084,0.08l0.085,0.08l0.085,0.08l0.085,0.079l0.085,0.08l0.086,0.079l0.086,0.079l0.086,0.078l0.086,0.078l0.087,0.078l0.087,0.078l0.087,0.078l0.087,0.077l0.087,0.077l0.088,0.076l0.088,0.077l0.088,0.076l0.089,0.076l0.089,0.076l0.088,0.075l0.09,0.075l0.089,0.075l0.089,0.075l0.09,0.074l0.09,0.074l0.091,0.074l0.09,0.074l0.091,0.073l0.091,0.073l0.091,0.073l0.091,0.072l0.092,0.072l0.091,0.072l0.093,0.072l0.092,0.071l0.092,0.071l0.093,0.071l0.093,0.071l0.093,0.07l0.093,0.07l0.094,0.07l0.094,0.069l0.093,0.069l0.095,0.07l0.094,0.068l0.095,0.068l0.095,0.069l0.094,0.067l0.096,0.068l0.095,0.067l0.096,0.067l0.096,0.067l0.096,0.066l0.096,0.066l0.096,0.066l0.097,0.066l0.097,0.065l0.097,0.065l0.097,0.065l0.098,0.064l0.098,0.064l0.097,0.064l0.098,0.063l0.099,0.064l0.098,0.063l0.099,0.062l0.099,0.063l0.099,0.062l0.099,0.062l0.1,0.061l0.099,0.061l0.1,0.061l0.1,0.061l0.101,0.06l0.1,0.06l0.101,0.06l0.101,0.059l0.101,0.06l0.101,0.058l0.101,0.059l0.102,0.058l0.102,0.058l0.102,0.058l0.102,0.057l0.102,0.057l0.103,0.057l0.102,0.056l0.103,0.056l0.103,0.056l0.104,0.056l0.103,0.055l0.104,0.055l0.103,0.054l0.104,0.055l0.105,0.054l0.104,0.053l0.105,0.054l0.104,0.053l0.105,0.053l0.105,0.052l0.106,0.052l0.105,0.052l0.106,0.052l0.105,0.051l0.106,0.051l0.106,0.05l0.107,0.051l0.106,0.05l0.107,0.049l0.107,0.049l0.107,0.049l0.107,0.049l0.107,0.049l0.108,0.048l0.107,0.047l0.108,0.048l0.108,0.047l0.108,0.047l0.109,0.046l0.108,0.046l0.109,0.046l0.109,0.045l0.109,0.046l0.109,0.044l0.109,0.045l0.11,0.044l0.11,0.044l0.109,0.043l0.11,0.044l0.11,0.043l0.111,0.042l0.11,0.042l0.111,0.042l0.111,0.042l0.11,0.041l0.112,0.041l0.111,0.041l0.111,0.04l0.112,0.04l0.112,0.039l0.111,0.04l0.113,0.038l0.112,0.039l0.112,0.038l0.113,0.038l0.112,0.038l0.113,0.037l0.113,0.037l0.113,0.036l0.113,0.037l0.114,0.036l0.113,0.035l0.114,0.035l0.114,0.035l0.114,0.035l0.114,0.034l0.114,0.034l0.115,0.033l0.114,0.033l0.115,0.033l0.115,0.033l0.115,0.032l0.115,0.031l0.115,0.032l0.116,0.031l0.115,0.031l0.116,0.03l0.116,0.03l0.116,0.03l0.116,0.029l0.117,0.029l0.116,0.029l0.116,0.028l0.117,0.028l0.117,0.028l0.117,0.027l0.117,0.027l0.117,0.026l0.118,0.026l0.117,0.026l0.118,0.026l0.118,0.025l0.118,0.024l0.118,0.025l0.118,0.024l0.118,0.023l0.119,0.024l0.118,0.023l0.119,0.022l0.119,0.023l0.119,0.021l0.119,0.022l0.119,0.021l0.12,0.021l0.119,0.02l0.12,0.02l0.12,0.02l0.12,0.019l0.12,0.019l0.12,0.019l0.12,0.018l0.121,0.018l0.12,0.017l0.121,0.017l0.121,0.017l0.12,0.016l0.121,0.016l0.122,0.016l0.121,0.015l0.121,0.015l0.122,0.015l0.122,0.014l0.121,0.014l0.122,0.013l0.122,0.013l0.123,0.013l0.122,0.012l0.122,0.012l0.123,0.011l0.122,0.011l0.123,0.011l0.123,0.01l0.123,0.01l0.123,0.01l0.123,0.009l0.124,0.009l0.123,0.008l0.124,0.008l0.123,0.008l0.124,0.007l0.124,0.007l0.124,0.007l0.124,0.006l0.125,0.005l0.124,0.006l0.125,0.005l0.124,0.004l0.125,0.004l0.125,0.004l0.125,0.003l0.125,0.003l0.125,0.003l0.125,0.002l0.126,0.002l0.125,0.001l0.126,0.001l0.126,0.001l0.126,0l0.11,0l0.11,0l0.11,-0.001l0.11,-0.001l0.109,-0.002l0.11,-0.001l0.11,-0.002l0.109,-0.003l0.11,-0.002l0.109,-0.003l0.109,-0.003l0.11,-0.004l0.109,-0.003l0.108,-0.005l0.109,-0.004l0.109,-0.005l0.109,-0.005l0.109,-0.005l0.108,-0.005l0.109,-0.006l0.108,-0.006l0.108,-0.007l0.109,-0.007l0.108,-0.007l0.108,-0.007l0.108,-0.008l0.107,-0.008l0.108,-0.008l0.108,-0.008l0.107,-0.009l0.108,-0.009l0.107,-0.01l0.108,-0.009l0.107,-0.01l0.107,-0.011l0.107,-0.01l0.107,-0.011l0.107,-0.011l0.107,-0.012l0.106,-0.011l0.107,-0.012l0.106,-0.013l0.107,-0.012l0.106,-0.013l0.106,-0.013l0.106,-0.014l0.106,-0.013l0.106,-0.014l0.106,-0.015l0.106,-0.014l0.105,-0.015l0.106,-0.015l0.105,-0.016l0.105,-0.015l0.106,-0.016l0.105,-0.017l0.105,-0.016l0.105,-0.017l0.105,-0.017l0.104,-0.018l0.105,-0.017l0.104,-0.018l0.105,-0.018l0.104,-0.019l0.104,-0.019l0.105,-0.019l0.104,-0.019l0.103,-0.02l0.104,-0.02l0.104,-0.02l0.104,-0.02l0.103,-0.021l0.104,-0.021l0.103,-0.021l0.103,-0.022l0.103,-0.022l0.103,-0.022l0.103,-0.022l0.103,-0.023l0.103,-0.023l0.102,-0.023l0.103,-0.023l0.102,-0.024l0.102,-0.024l0.103,-0.024l0.102,-0.025l0.102,-0.024l0.101,-0.026l0.102,-0.025l0.102,-0.025l0.101,-0.026l0.102,-0.026l0.101,-0.027l0.101,-0.027l0.102,-0.027l0.101,-0.027l0.1,-0.027l0.101,-0.028l0.101,-0.028l0.1,-0.028l0.101,-0.029l0.1,-0.028l0.1,-0.03l0.1,-0.029l0.101,-0.029l0.099,-0.03l0.1,-0.03l0.1,-0.031l0.099,-0.03l0.1,-0.031l0.099,-0.031l0.099,-0.032l0.099,-0.031l0.099,-0.032l0.099,-0.033l0.099,-0.032l0.098,-0.033l0.099,-0.033l0.098,-0.033l0.099,-0.033l0.098,-0.034l0.098,-0.034l0.098,-0.034l0.098,-0.035l0.097,-0.035l0.098,-0.035l0.097,-0.035l0.098,-0.035l0.097,-0.036l0.097,-0.036l0.097,-0.036l0.097,-0.037l0.096,-0.037l0.097,-0.037l0.097,-0.037l0.096,-0.038l0.096,-0.037l0.096,-0.038l0.096,-0.039l0.096,-0.038l0.096,-0.039l0.095,-0.039l0.096,-0.039l0.095,-0.04l0.096,-0.04l0.095,-0.04l0.095,-0.04l0.094,-0.04l0.095,-0.041l0.095,-0.041l0.094,-0.041l0.095,-0.042l0.094,-0.041l0.094,-0.042l0.094,-0.043l0.094,-0.042l0.093,-0.043l0.094,-0.043l0.093,-0.043l0.094,-0.043l0.093,-0.044l0.093,-0.044l0.093,-0.044l0.093,-0.045l0.092,-0.044l0.093,-0.045l0.092,-0.045l0.092,-0.046l0.092,-0.045l0.092,-0.046l0.092,-0.046l0.092,-0.046l0.091,-0.047l0.092,-0.047l0.091,-0.047l0.091,-0.047l0.091,-0.047l0.091,-0.048l0.091,-0.048l0.09,-0.048l0.091,-0.049l0.09,-0.048l0.09,-0.049l0.09,-0.049l0.09,-0.05l0.09,-0.049l0.09,-0.05l0.089,-0.05l0.089,-0.05l0.09,-0.051l0.089,-0.051l0.088,-0.051l0.089,-0.051l0.089,-0.051l0.088,-0.052l0.088,-0.052l0.089,-0.052l0.088,-0.052l0.087,-0.053l0.088,-0.052l0.088,-0.054l0.087,-0.053l0.087,-0.053l0.087,-0.054l0.088,-0.054l0.086,-0.054l0.087,-0.054l0.087,-0.055l0.086,-0.055l0.086,-0.055l0.086,-0.055l0.086,-0.055l0.086,-0.056l0.085,-0.056l0.086,-0.056l0.085,-0.057l0.085,-0.056l0.085,-0.057l0.085,-0.057l0.085,-0.057l0.084,-0.058l0.084,-0.057l0.085,-0.058l0.084,-0.058l0.083,-0.058l0.084,-0.059l0.084,-0.059l0.083,-0.059l0.083,-0.059l0.084,-0.059l0.083,-0.06l0.082,-0.06l0.083,-0.06l0.082,-0.06l0.083,-0.061l0.082,-0.06l0.082,-0.061l0.081,-0.061l0.082,-0.062l0.081,-0.061l0.082,-0.062l0.081,-0.062l0.081,-0.062l0.081,-0.062l0.08,-0.063l0.08,-0.062l0.081,-0.063l0.08,-0.064l0.08,-0.063l0.08,-0.063l0.079,-0.064l0.08,-0.064l0.079,-0.064l0.079,-0.065l0.079,-0.065l0.087,-0.071l1.075,-0.746l1.182,-0.561l1.258,-0.361l0.066,-0.008l0.008,-0.066l0.361,-1.258l0.561,-1.182l0.746,-1.075l0.071,-0.087l0.065,-0.079l0.065,-0.079l0.064,-0.079l0.064,-0.08l0.064,-0.079l0.063,-0.08l0.063,-0.08l0.064,-0.08l0.063,-0.081l0.062,-0.08l0.063,-0.08l0.062,-0.081l0.062,-0.081l0.062,-0.081l0.062,-0.082l0.061,-0.081l0.062,-0.082l0.061,-0.081l0.061,-0.082l0.06,-0.082l0.061,-0.083l0.06,-0.082l0.06,-0.083l0.06,-0.082l0.06,-0.083l0.059,-0.084l0.059,-0.083l0.059,-0.083l0.059,-0.084l0.059,-0.084l0.058,-0.083l0.058,-0.084l0.058,-0.085l0.057,-0.084l0.058,-0.084l0.057,-0.085l0.057,-0.085l0.057,-0.085l0.056,-0.085l0.057,-0.085l0.056,-0.086l0.056,-0.085l0.056,-0.086l0.055,-0.086l0.055,-0.086l0.055,-0.086l0.055,-0.086l0.055,-0.087l0.054,-0.087l0.054,-0.086l0.054,-0.088l0.054,-0.087l0.053,-0.087l0.053,-0.087l0.054,-0.088l0.052,-0.088l0.053,-0.087l0.052,-0.088l0.052,-0.089l0.052,-0.088l0.052,-0.088l0.051,-0.089l0.051,-0.089l0.051,-0.088l0.051,-0.089l0.051,-0.09l0.05,-0.089l0.05,-0.089l0.05,-0.09l0.049,-0.09l0.05,-0.09l0.049,-0.09l0.049,-0.09l0.048,-0.09l0.049,-0.091l0.048,-0.09l0.048,-0.091l0.048,-0.091l0.047,-0.091l0.047,-0.091l0.047,-0.091l0.047,-0.092l0.047,-0.091l0.046,-0.092l0.046,-0.092l0.046,-0.092l0.045,-0.092l0.046,-0.092l0.045,-0.092l0.045,-0.093l0.044,-0.092l0.045,-0.093l0.044,-0.093l0.044,-0.093l0.044,-0.093l0.043,-0.094l0.043,-0.093l0.043,-0.094l0.043,-0.093l0.042,-0.094l0.043,-0.094l0.042,-0.094l0.041,-0.094l0.042,-0.095l0.041,-0.094l0.041,-0.095l0.041,-0.095l0.04,-0.094l0.04,-0.095l0.04,-0.095l0.04,-0.096l0.04,-0.095l0.039,-0.096l0.039,-0.095l0.039,-0.096l0.038,-0.096l0.039,-0.096l0.038,-0.096l0.037,-0.096l0.038,-0.096l0.037,-0.097l0.037,-0.097l0.037,-0.096l0.037,-0.097l0.036,-0.097l0.036,-0.097l0.036,-0.097l0.035,-0.098l0.035,-0.097l0.035,-0.098l0.035,-0.097l0.035,-0.098l0.034,-0.098l0.034,-0.098l0.034,-0.098l0.033,-0.099l0.033,-0.098l0.033,-0.099l0.033,-0.098l0.032,-0.099l0.033,-0.099l0.032,-0.099l0.031,-0.099l0.032,-0.099l0.031,-0.099l0.031,-0.1l0.03,-0.099l0.031,-0.1l0.03,-0.1l0.03,-0.099l0.029,-0.101l0.029,-0.1l0.03,-0.1l0.028,-0.1l0.029,-0.101l0.028,-0.1l0.028,-0.101l0.028,-0.101l0.027,-0.1l0.027,-0.101l0.027,-0.102l0.027,-0.101l0.027,-0.101l0.026,-0.102l0.026,-0.101l0.025,-0.102l0.025,-0.102l0.026,-0.101l0.024,-0.102l0.025,-0.102l0.024,-0.103l0.024,-0.102l0.024,-0.102l0.023,-0.103l0.023,-0.102l0.023,-0.103l0.023,-0.103l0.022,-0.103l0.022,-0.103l0.022,-0.103l0.022,-0.103l0.021,-0.103l0.021,-0.104l0.021,-0.103l0.02,-0.104l0.02,-0.104l0.02,-0.104l0.02,-0.103l0.019,-0.104l0.019,-0.105l0.019,-0.104l0.019,-0.104l0.018,-0.105l0.018,-0.104l0.017,-0.105l0.018,-0.104l0.017,-0.105l0.017,-0.105l0.016,-0.105l0.017,-0.105l0.016,-0.106l0.015,-0.105l0.016,-0.105l0.015,-0.106l0.015,-0.105l0.014,-0.106l0.015,-0.106l0.014,-0.106l0.013,-0.106l0.014,-0.106l0.013,-0.106l0.013,-0.106l0.012,-0.107l0.013,-0.106l0.012,-0.107l0.011,-0.106l0.012,-0.107l0.011,-0.107l0.011,-0.107l0.01,-0.107l0.011,-0.107l0.01,-0.107l0.009,-0.108l0.01,-0.107l0.009,-0.108l0.009,-0.107l0.008,-0.108l0.008,-0.108l0.008,-0.107l0.008,-0.108l0.007,-0.108l0.007,-0.108l0.007,-0.109l0.007,-0.108l0.006,-0.108l0.006,-0.109l0.005,-0.108l0.005,-0.109l0.005,-0.109l0.005,-0.109l0.004,-0.109l0.005,-0.108l0.003,-0.109l0.004,-0.11l0.003,-0.109l0.003,-0.109l0.002,-0.11l0.003,-0.109l0.002,-0.11l0.001,-0.11l0.002,-0.109l0.001,-0.11l0.001,-0.11l0,-0.11l0,-0.11l0,-0.126l-0.001,-0.126l-0.001,-0.126l-0.001,-0.125l-0.002,-0.126l-0.002,-0.125l-0.003,-0.125l-0.003,-0.125l-0.003,-0.125l-0.004,-0.125l-0.004,-0.125l-0.004,-0.124l-0.005,-0.125l-0.006,-0.124l-0.005,-0.125l-0.006,-0.124l-0.007,-0.124l-0.007,-0.124l-0.007,-0.124l-0.008,-0.123l-0.008,-0.124l-0.008,-0.123l-0.009,-0.124l-0.009,-0.123l-0.01,-0.123l-0.01,-0.123l-0.01,-0.123l-0.011,-0.123l-0.011,-0.122l-0.011,-0.123l-0.012,-0.122l-0.012,-0.122l-0.013,-0.123l-0.013,-0.122l-0.013,-0.122l-0.014,-0.121l-0.014,-0.122l-0.015,-0.122l-0.015,-0.121l-0.015,-0.121l-0.016,-0.122l-0.016,-0.121l-0.016,-0.12l-0.017,-0.121l-0.017,-0.121l-0.017,-0.12l-0.018,-0.121l-0.018,-0.12l-0.019,-0.12l-0.019,-0.12l-0.019,-0.12l-0.02,-0.12l-0.02,-0.12l-0.02,-0.119l-0.021,-0.12l-0.021,-0.119l-0.022,-0.119l-0.021,-0.119l-0.023,-0.119l-0.022,-0.119l-0.023,-0.118l-0.024,-0.119l-0.023,-0.118l-0.024,-0.118l-0.025,-0.118l-0.024,-0.118l-0.025,-0.118l-0.026,-0.118l-0.026,-0.117l-0.026,-0.118l-0.026,-0.117l-0.027,-0.117l-0.027,-0.117l-0.028,-0.117l-0.028,-0.117l-0.028,-0.116l-0.029,-0.116l-0.029,-0.117l-0.029,-0.116l-0.03,-0.116l-0.03,-0.116l-0.03,-0.116l-0.031,-0.115l-0.031,-0.116l-0.032,-0.115l-0.031,-0.115l-0.032,-0.115l-0.033,-0.115l-0.033,-0.115l-0.033,-0.114l-0.033,-0.115l-0.034,-0.114l-0.034,-0.114l-0.035,-0.114l-0.035,-0.114l-0.035,-0.114l-0.035,-0.113l-0.036,-0.114l-0.037,-0.113l-0.036,-0.113l-0.037,-0.113l-0.037,-0.113l-0.038,-0.112l-0.038,-0.113l-0.038,-0.112l-0.039,-0.112l-0.038,-0.113l-0.04,-0.111l-0.039,-0.112l-0.04,-0.112l-0.04,-0.111l-0.041,-0.111l-0.041,-0.112l-0.041,-0.11l-0.042,-0.111l-0.042,-0.111l-0.042,-0.11l-0.042,-0.111l-0.043,-0.11l-0.044,-0.11l-0.043,-0.109l-0.044,-0.11l-0.044,-0.11l-0.045,-0.109l-0.044,-0.109l-0.046,-0.109l-0.045,-0.109l-0.046,-0.109l-0.046,-0.108l-0.046,-0.109l-0.047,-0.108l-0.047,-0.108l-0.048,-0.108l-0.047,-0.107l-0.048,-0.108l-0.049,-0.107l-0.049,-0.107l-0.049,-0.107l-0.049,-0.107l-0.049,-0.107l-0.05,-0.106l-0.051,-0.107l-0.05,-0.106l-0.051,-0.106l-0.051,-0.105l-0.052,-0.106l-0.052,-0.105l-0.052,-0.106l-0.052,-0.105l-0.053,-0.105l-0.053,-0.104l-0.054,-0.105l-0.053,-0.104l-0.054,-0.105l-0.055,-0.104l-0.054,-0.103l-0.055,-0.104l-0.055,-0.103l-0.056,-0.104l-0.056,-0.103l-0.056,-0.103l-0.056,-0.102l-0.057,-0.103l-0.057,-0.102l-0.057,-0.102l-0.058,-0.102l-0.058,-0.102l-0.058,-0.102l-0.059,-0.101l-0.058,-0.101l-0.06,-0.101l-0.059,-0.101l-0.06,-0.101l-0.06,-0.1l-0.06,-0.101l-0.061,-0.1l-0.061,-0.1l-0.061,-0.099l-0.061,-0.1l-0.062,-0.099l-0.062,-0.099l-0.063,-0.099l-0.062,-0.099l-0.063,-0.098l-0.064,-0.099l-0.063,-0.098l-0.064,-0.097l-0.064,-0.098l-0.064,-0.098l-0.065,-0.097l-0.065,-0.097l-0.065,-0.097l-0.066,-0.097l-0.066,-0.096l-0.066,-0.096l-0.066,-0.096l-0.067,-0.096l-0.067,-0.096l-0.067,-0.095l-0.068,-0.096l-0.067,-0.094l-0.069,-0.095l-0.068,-0.095l-0.068,-0.094l-0.07,-0.095l-0.069,-0.093l-0.069,-0.094l-0.07,-0.094l-0.07,-0.093l-0.07,-0.093l-0.071,-0.093l-0.071,-0.093l-0.071,-0.092l-0.071,-0.092l-0.072,-0.093l-0.072,-0.091l-0.072,-0.092l-0.072,-0.091l-0.073,-0.091l-0.073,-0.091l-0.073,-0.091l-0.074,-0.09l-0.074,-0.091l-0.074,-0.09l-0.074,-0.09l-0.075,-0.089l-0.075,-0.089l-0.075,-0.09l-0.075,-0.088l-0.076,-0.089l-0.076,-0.089l-0.076,-0.088l-0.077,-0.088l-0.076,-0.088l-0.077,-0.087l-0.077,-0.087l-0.078,-0.087l-0.078,-0.087l-0.078,-0.087l-0.078,-0.086l-0.078,-0.086l-0.079,-0.086l-0.079,-0.086l-0.08,-0.085l-0.079,-0.085l-0.08,-0.085l-0.08,-0.085l-0.08,-0.084l-0.081,-0.085l-0.08,-0.084l-0.082,-0.083l-0.081,-0.084l-0.081,-0.083l-0.082,-0.083l-0.082,-0.083l-0.082,-0.082l-0.083,-0.083l-0.083,-0.082l-0.083,-0.081l-0.083,-0.082l-0.083,-0.081l-0.084,-0.081l-0.084,-0.081l-0.084,-0.081l-0.085,-0.08l-0.085,-0.08l-0.085,-0.08l-0.085,-0.079l-0.085,-0.079l-0.086,-0.08l-0.086,-0.078l-0.086,-0.079l-0.086,-0.078l-0.087,-0.078l-0.086,-0.078l-0.088,-0.077l-0.087,-0.078l-0.087,-0.076l-0.088,-0.077l-0.088,-0.077l-0.088,-0.076l-0.089,-0.076l-0.088,-0.075l-0.089,-0.076l-0.089,-0.075l-0.09,-0.075l-0.089,-0.074l-0.09,-0.075l-0.09,-0.074l-0.09,-0.074l-0.091,-0.073l-0.091,-0.074l-0.09,-0.073l-0.092,-0.072l-0.091,-0.073l-0.092,-0.072l-0.091,-0.072l-0.092,-0.072l-0.093,-0.071l-0.092,-0.071l-0.093,-0.071l-0.093,-0.071l-0.093,-0.07l-0.093,-0.07l-0.094,-0.07l-0.093,-0.069l-0.094,-0.069l-0.094,-0.069l-0.095,-0.069l-0.094,-0.068l-0.095,-0.068l-0.095,-0.068l-0.096,-0.068l-0.095,-0.067l-0.096,-0.067l-0.095,-0.067l-0.097,-0.066l-0.096,-0.066l-0.096,-0.066l-0.097,-0.065l-0.097,-0.066l-0.097,-0.065l-0.097,-0.064l-0.098,-0.065l-0.097,-0.064l-0.098,-0.064l-0.098,-0.063l-0.099,-0.064l-0.098,-0.063l-0.099,-0.062l-0.099,-0.063l-0.099,-0.062l-0.099,-0.061l-0.1,-0.062l-0.099,-0.061l-0.1,-0.061l-0.1,-0.061l-0.1,-0.06l-0.101,-0.06l-0.1,-0.06l-0.101,-0.059l-0.101,-0.059l-0.102,-0.059l-0.101,-0.059l-0.102,-0.058l-0.101,-0.058l-0.102,-0.058l-0.103,-0.057l-0.102,-0.057l-0.102,-0.057l-0.103,-0.056l-0.103,-0.056l-0.103,-0.056l-0.103,-0.056l-0.104,-0.055l-0.103,-0.055l-0.104,-0.054l-0.104,-0.055l-0.104,-0.054l-0.105,-0.053l-0.104,-0.054l-0.105,-0.053l-0.105,-0.053l-0.105,-0.052l-0.105,-0.052l-0.106,-0.052l-0.105,-0.051l-0.106,-0.052l-0.106,-0.051l-0.106,-0.05l-0.107,-0.05l-0.106,-0.05l-0.107,-0.05l-0.107,-0.049l-0.107,-0.049l-0.107,-0.049l-0.107,-0.048l-0.108,-0.048l-0.107,-0.048l-0.108,-0.047l-0.108,-0.048l-0.108,-0.046l-0.109,-0.047l-0.108,-0.046l-0.109,-0.046l-0.109,-0.045l-0.109,-0.045l-0.109,-0.045l-0.109,-0.045l-0.11,-0.044l-0.109,-0.044l-0.11,-0.043l-0.11,-0.043l-0.11,-0.043l-0.111,-0.043l-0.11,-0.042l-0.111,-0.042l-0.11,-0.042l-0.111,-0.041l-0.111,-0.041l-0.112,-0.04l-0.111,-0.041l-0.112,-0.039l-0.111,-0.04l-0.112,-0.039l-0.112,-0.039l-0.112,-0.039l-0.113,-0.038l-0.112,-0.038l-0.113,-0.038l-0.113,-0.037l-0.113,-0.037l-0.113,-0.036l-0.113,-0.036l-0.113,-0.036l-0.114,-0.036l-0.114,-0.035l-0.114,-0.035l-0.114,-0.034l-0.114,-0.035l-0.114,-0.033l-0.114,-0.034l-0.115,-0.033l-0.115,-0.033l-0.115,-0.032l-0.115,-0.032l-0.115,-0.032l-0.115,-0.032l-0.116,-0.031l-0.115,-0.03l-0.116,-0.031l-0.116,-0.03l-0.116,-0.03l-0.116,-0.029l-0.116,-0.029l-0.117,-0.029l-0.116,-0.028l-0.117,-0.028l-0.117,-0.027l-0.117,-0.028l-0.117,-0.026l-0.117,-0.027l-0.117,-0.026l-0.118,-0.026l-0.118,-0.025l-0.118,-0.025l-0.117,-0.025l-0.119,-0.025l-0.118,-0.024l-0.118,-0.023l-0.119,-0.024l-0.118,-0.023l-0.119,-0.022l-0.119,-0.022l-0.119,-0.022l-0.119,-0.022l-0.119,-0.021l-0.12,-0.021l-0.119,-0.02l-0.12,-0.02l-0.119,-0.02l-0.12,-0.019l-0.12,-0.019l-0.121,-0.019l-0.12,-0.018l-0.12,-0.018l-0.121,-0.017l-0.121,-0.017l-0.12,-0.017l-0.121,-0.016l-0.121,-0.016l-0.121,-0.016l-0.122,-0.015l-0.121,-0.015l-0.122,-0.014l-0.121,-0.015l-0.122,-0.013l-0.122,-0.014l-0.122,-0.013l-0.122,-0.012l-0.123,-0.013l-0.122,-0.011l-0.122,-0.012l-0.123,-0.011l-0.123,-0.011l-0.123,-0.01l-0.123,-0.01l-0.123,-0.01l-0.123,-0.009l-0.123,-0.009l-0.124,-0.008l-0.124,-0.008l-0.123,-0.008l-0.124,-0.007l-0.124,-0.007l-0.124,-0.006l-0.124,-0.006l-0.124,-0.006l-0.125,-0.006l-0.124,-0.004l-0.125,-0.005l-0.125,-0.004l-0.125,-0.004l-0.125,-0.003l-0.125,-0.003l-0.125,-0.003l-0.125,-0.002l-0.126,-0.002l-0.125,-0.001l-0.126,-0.001l-0.126,-0.001l-0.125,0l-0.126,0Z"/></svg>