<?xml version="1.0" encoding="UTF-8" standalone="no"?><!DOCTYPE svg PUBLIC "-//W3C//DTD SVG 1.1//EN" "http://www.w3.org/Graphics/SVG/1.1/DTD/svg11.dtd"><svg width="100%" height="100%" viewBox="0 0 120 120" version="1.1" xml:space="preserve" style="fill-rule:evenodd;clip-rule:evenodd;stroke-linejoin:round;stroke-miterlimit:2;"><path d="M60.194,0l0.194,0.001l0.193,0.002l0.194,0.002l0.193,0.003l0.194,0.003l0.193,0.004l0.193,0.005l0.192,0.005l0.193,0.006l0.193,0.006l0.192,0.007l0.192,0.008l0.192,0.008l0.192,0.009l0.192,0.009l0.191,0.01l0.192,0.011l0.191,0.011l0.191,0.012l0.191,0.012l0.191,0.013l0.19,0.014l0.191,0.014l0.19,0.015l0.19,0.015l0.19,0.016l0.19,0.017l0.189,0.017l0.19,0.018l0.189,0.018l0.189,0.019l0.189,0.02l0.189,0.02l0.188,0.02l0.189,0.022l0.188,0.021l0.188,0.023l0.188,0.023l0.187,0.023l0.188,0.025l0.187,0.024l0.187,0.026l0.187,0.026l0.187,0.026l0.187,0.027l0.186,0.028l0.186,0.028l0.186,0.029l0.186,0.029l0.186,0.03l0.185,0.03l0.186,0.031l0.185,0.032l0.185,0.032l0.184,0.033l0.185,0.033l0.184,0.034l0.184,0.034l0.184,0.035l0.184,0.036l0.183,0.036l0.184,0.037l0.183,0.037l0.183,0.038l0.182,0.038l0.183,0.039l0.182,0.039l0.182,0.04l0.182,0.041l0.182,0.041l0.181,0.042l0.182,0.042l0.181,0.042l0.18,0.044l0.181,0.044l0.181,0.044l0.18,0.045l0.18,0.045l0.18,0.046l0.179,0.047l0.179,0.047l0.18,0.048l0.178,0.048l0.179,0.048l0.179,0.05l0.178,0.049l0.178,0.051l0.178,0.051l0.177,0.051l0.178,0.052l0.177,0.052l0.177,0.053l0.176,0.054l0.177,0.054l0.176,0.054l0.176,0.055l0.176,0.056l0.175,0.056l0.175,0.057l0.175,0.057l0.175,0.058l0.175,0.058l0.174,0.059l0.174,0.059l0.174,0.06l0.174,0.06l0.173,0.061l0.173,0.061l0.173,0.062l0.173,0.062l0.172,0.063l0.172,0.064l0.172,0.064l0.172,0.064l0.171,0.065l0.171,0.065l0.171,0.066l0.171,0.067l0.17,0.067l0.17,0.067l0.17,0.068l0.17,0.068l0.169,0.069l0.17,0.07l0.168,0.07l0.169,0.07l0.168,0.071l0.168,0.072l0.168,0.072l0.168,0.072l0.167,0.073l0.167,0.073l0.167,0.074l0.166,0.075l0.167,0.075l0.166,0.075l0.165,0.076l0.166,0.076l0.165,0.077l0.165,0.077l0.164,0.078l0.165,0.079l0.164,0.078l0.164,0.08l0.163,0.079l0.163,0.081l0.163,0.08l0.163,0.082l0.162,0.081l0.162,0.082l0.162,0.083l0.162,0.083l0.161,0.084l0.161,0.084l0.161,0.084l0.16,0.085l0.16,0.086l0.16,0.086l0.16,0.086l0.159,0.087l0.159,0.087l0.159,0.088l0.158,0.088l0.158,0.089l0.158,0.089l0.157,0.09l0.158,0.09l0.156,0.091l0.157,0.091l0.156,0.091l0.156,0.092l0.156,0.093l0.155,0.092l0.156,0.094l0.154,0.094l0.155,0.094l0.154,0.094l0.154,0.096l0.153,0.095l0.154,0.096l0.153,0.097l0.152,0.097l0.153,0.097l0.152,0.098l0.151,0.098l0.152,0.099l0.151,0.099l0.15,0.099l0.151,0.101l0.15,0.1l0.15,0.101l0.149,0.101l0.149,0.102l0.149,0.102l0.149,0.103l0.148,0.103l0.148,0.104l0.147,0.103l0.148,0.105l0.146,0.105l0.147,0.105l0.146,0.106l0.146,0.106l0.146,0.106l0.145,0.107l0.145,0.108l0.144,0.107l0.145,0.109l0.144,0.108l0.143,0.109l0.143,0.11l0.143,0.11l0.143,0.11l0.142,0.111l0.142,0.111l0.141,0.112l0.142,0.112l0.14,0.112l0.141,0.113l0.14,0.113l0.14,0.114l0.139,0.114l0.139,0.114l0.139,0.115l0.139,0.115l0.138,0.116l0.137,0.116l0.138,0.117l0.137,0.117l0.136,0.117l0.137,0.118l0.135,0.118l0.136,0.118l0.135,0.119l0.135,0.119l0.135,0.12l0.134,0.12l0.133,0.121l0.134,0.121l0.133,0.121l0.133,0.122l0.132,0.122l0.132,0.122l0.131,0.123l0.132,0.123l0.13,0.124l0.131,0.124l0.13,0.124l0.13,0.125l0.129,0.125l0.129,0.126l0.129,0.126l0.128,0.126l0.128,0.127l0.127,0.127l0.127,0.127l0.127,0.128l0.126,0.128l0.126,0.129l0.126,0.129l0.125,0.129l0.125,0.13l0.124,0.13l0.124,0.131l0.124,0.13l0.123,0.132l0.123,0.131l0.122,0.132l0.122,0.132l0.122,0.133l0.121,0.133l0.121,0.134l0.121,0.133l0.12,0.134l0.12,0.135l0.119,0.135l0.119,0.135l0.118,0.136l0.118,0.135l0.118,0.137l0.117,0.136l0.117,0.137l0.117,0.138l0.116,0.137l0.116,0.138l0.115,0.139l0.115,0.139l0.114,0.139l0.114,0.139l0.114,0.14l0.113,0.14l0.113,0.141l0.112,0.14l0.112,0.142l0.112,0.141l0.111,0.142l0.111,0.142l0.11,0.143l0.11,0.143l0.11,0.143l0.109,0.143l0.108,0.144l0.109,0.145l0.107,0.144l0.108,0.145l0.107,0.145l0.106,0.146l0.106,0.146l0.106,0.146l0.105,0.147l0.105,0.146l0.105,0.148l0.103,0.147l0.104,0.148l0.103,0.148l0.103,0.149l0.102,0.149l0.102,0.149l0.101,0.149l0.101,0.15l0.1,0.15l0.101,0.151l0.099,0.15l0.099,0.151l0.099,0.152l0.098,0.151l0.098,0.152l0.097,0.153l0.097,0.152l0.097,0.153l0.096,0.154l0.095,0.153l0.096,0.154l0.094,0.154l0.094,0.155l0.094,0.154l0.094,0.156l0.092,0.155l0.093,0.156l0.092,0.156l0.091,0.156l0.091,0.157l0.091,0.156l0.09,0.158l0.09,0.157l0.089,0.158l0.089,0.158l0.088,0.158l0.088,0.159l0.087,0.159l0.087,0.159l0.086,0.16l0.086,0.16l0.086,0.16l0.085,0.16l0.084,0.161l0.084,0.161l0.084,0.161l0.083,0.162l0.083,0.162l0.082,0.162l0.081,0.162l0.082,0.163l0.08,0.163l0.081,0.163l0.079,0.163l0.08,0.164l0.078,0.164l0.079,0.165l0.078,0.164l0.077,0.165l0.077,0.165l0.076,0.166l0.076,0.165l0.075,0.166l0.075,0.167l0.075,0.166l0.074,0.167l0.073,0.167l0.073,0.167l0.072,0.168l0.072,0.168l0.072,0.168l0.071,0.168l0.07,0.169l0.07,0.168l0.07,0.17l0.069,0.169l0.068,0.17l0.068,0.17l0.067,0.17l0.067,0.17l0.067,0.171l0.066,0.171l0.065,0.171l0.065,0.171l0.064,0.172l0.064,0.172l0.064,0.172l0.063,0.172l0.062,0.173l0.062,0.173l0.061,0.173l0.061,0.173l0.06,0.174l0.06,0.174l0.059,0.174l0.059,0.174l0.058,0.175l0.058,0.175l0.057,0.175l0.057,0.175l0.056,0.175l0.056,0.176l0.055,0.176l0.054,0.176l0.054,0.177l0.054,0.176l0.053,0.177l0.052,0.177l0.052,0.178l0.051,0.177l0.051,0.178l0.051,0.178l0.049,0.178l0.05,0.179l0.048,0.179l0.048,0.178l0.048,0.18l0.047,0.179l0.047,0.179l0.046,0.18l0.045,0.18l0.045,0.18l0.044,0.181l0.044,0.181l0.044,0.18l0.042,0.181l0.042,0.182l0.042,0.181l0.041,0.182l0.041,0.182l0.04,0.182l0.039,0.182l0.039,0.183l0.038,0.182l0.038,0.183l0.037,0.183l0.037,0.184l0.036,0.183l0.036,0.184l0.035,0.184l0.034,0.184l0.034,0.184l0.033,0.185l0.033,0.184l0.032,0.185l0.032,0.185l0.031,0.186l0.03,0.185l0.03,0.186l0.029,0.186l0.029,0.186l0.028,0.186l0.028,0.186l0.027,0.187l0.026,0.187l0.026,0.187l0.026,0.187l0.024,0.187l0.025,0.188l0.023,0.187l0.023,0.188l0.023,0.188l0.021,0.188l0.022,0.189l0.02,0.188l0.02,0.189l0.02,0.189l0.019,0.189l0.018,0.189l0.018,0.19l0.017,0.189l0.017,0.19l0.016,0.19l0.015,0.19l0.015,0.19l0.014,0.191l0.014,0.19l0.013,0.191l0.012,0.191l0.012,0.191l0.011,0.191l0.011,0.192l0.01,0.191l0.009,0.192l0.009,0.192l0.008,0.192l0.008,0.192l0.007,0.192l0.006,0.193l0.006,0.193l0.005,0.192l0.005,0.193l0.004,0.193l0.003,0.194l0.003,0.193l0.002,0.194l0.002,0.193l0.001,0.194l0,0.194l0,0.194l-0.001,0.194l-0.002,0.193l-0.002,0.194l-0.003,0.193l-0.003,0.194l-0.004,0.193l-0.005,0.193l-0.005,0.192l-0.006,0.193l-0.006,0.193l-0.007,0.192l-0.008,0.192l-0.008,0.192l-0.009,0.192l-0.009,0.192l-0.01,0.191l-0.011,0.192l-0.011,0.191l-0.012,0.191l-0.012,0.191l-0.013,0.191l-0.014,0.19l-0.014,0.191l-0.015,0.19l-0.015,0.19l-0.016,0.19l-0.017,0.19l-0.017,0.189l-0.018,0.19l-0.018,0.189l-0.019,0.189l-0.02,0.189l-0.02,0.189l-0.02,0.188l-0.022,0.189l-0.021,0.188l-0.023,0.188l-0.023,0.188l-0.023,0.187l-0.025,0.188l-0.024,0.187l-0.026,0.187l-0.026,0.187l-0.026,0.187l-0.027,0.187l-0.028,0.186l-0.028,0.186l-0.029,0.186l-0.029,0.186l-0.03,0.186l-0.03,0.185l-0.031,0.186l-0.032,0.185l-0.032,0.185l-0.033,0.184l-0.033,0.185l-0.034,0.184l-0.034,0.184l-0.035,0.184l-0.036,0.184l-0.036,0.183l-0.037,0.184l-0.037,0.183l-0.038,0.183l-0.038,0.182l-0.039,0.183l-0.039,0.182l-0.04,0.182l-0.041,0.182l-0.041,0.182l-0.042,0.181l-0.042,0.182l-0.042,0.181l-0.044,0.18l-0.044,0.181l-0.044,0.181l-0.045,0.18l-0.045,0.18l-0.046,0.18l-0.047,0.179l-0.047,0.179l-0.048,0.18l-0.048,0.178l-0.048,0.179l-0.05,0.179l-0.049,0.178l-0.051,0.178l-0.051,0.178l-0.051,0.177l-0.052,0.178l-0.052,0.177l-0.053,0.177l-0.054,0.176l-0.054,0.177l-0.054,0.176l-0.055,0.176l-0.056,0.176l-0.056,0.175l-0.057,0.175l-0.057,0.175l-0.058,0.175l-0.058,0.175l-0.059,0.174l-0.059,0.174l-0.06,0.174l-0.06,0.174l-0.061,0.173l-0.061,0.173l-0.062,0.173l-0.062,0.173l-0.063,0.172l-0.064,0.172l-0.064,0.172l-0.064,0.172l-0.065,0.171l-0.065,0.171l-0.066,0.171l-0.067,0.171l-0.067,0.17l-0.067,0.17l-0.068,0.17l-0.068,0.17l-0.069,0.169l-0.07,0.17l-0.07,0.168l-0.07,0.169l-0.071,0.168l-0.072,0.168l-0.072,0.168l-0.072,0.168l-0.073,0.167l-0.073,0.167l-0.074,0.167l-0.075,0.166l-0.075,0.167l-0.075,0.166l-0.076,0.165l-0.076,0.166l-0.077,0.165l-0.077,0.165l-0.078,0.164l-0.079,0.165l-0.078,0.164l-0.08,0.164l-0.079,0.163l-0.081,0.163l-0.08,0.163l-0.082,0.163l-0.081,0.162l-0.082,0.162l-0.083,0.162l-0.083,0.162l-0.084,0.161l-0.084,0.161l-0.084,0.161l-0.085,0.16l-0.086,0.16l-0.086,0.16l-0.086,0.16l-0.087,0.159l-0.087,0.159l-0.088,0.159l-0.088,0.158l-0.089,0.158l-0.089,0.158l-0.09,0.157l-0.09,0.158l-0.091,0.156l-0.091,0.157l-0.091,0.156l-0.092,0.156l-0.093,0.156l-0.092,0.155l-0.094,0.156l-0.094,0.154l-0.094,0.155l-0.094,0.154l-0.096,0.154l-0.095,0.153l-0.096,0.154l-0.097,0.153l-0.097,0.152l-0.097,0.153l-0.098,0.152l-0.098,0.151l-0.099,0.152l-0.099,0.151l-0.099,0.15l-0.101,0.151l-0.1,0.15l-0.101,0.15l-0.101,0.149l-0.102,0.149l-0.102,0.149l-0.103,0.149l-0.103,0.148l-0.104,0.148l-0.103,0.147l-0.105,0.148l-0.105,0.146l-0.105,0.147l-0.106,0.146l-0.106,0.146l-0.106,0.146l-0.107,0.145l-0.108,0.145l-0.107,0.144l-0.109,0.145l-0.108,0.144l-0.109,0.143l-0.11,0.143l-0.11,0.143l-0.11,0.143l-0.111,0.142l-0.111,0.142l-0.112,0.141l-0.112,0.142l-0.112,0.14l-0.113,0.141l-0.113,0.14l-0.114,0.14l-0.114,0.139l-0.114,0.139l-0.115,0.139l-0.115,0.139l-0.116,0.138l-0.116,0.137l-0.117,0.138l-0.117,0.137l-0.117,0.136l-0.118,0.137l-0.118,0.135l-0.118,0.136l-0.119,0.135l-0.119,0.135l-0.12,0.135l-0.12,0.134l-0.121,0.133l-0.121,0.134l-0.121,0.133l-0.122,0.133l-0.122,0.132l-0.122,0.132l-0.123,0.131l-0.123,0.132l-0.124,0.13l-0.124,0.131l-0.124,0.13l-0.125,0.13l-0.125,0.129l-0.126,0.129l-0.126,0.129l-0.126,0.128l-0.127,0.128l-0.127,0.127l-0.127,0.127l-0.128,0.127l-0.128,0.126l-0.129,0.126l-0.129,0.126l-0.129,0.125l-0.13,0.125l-0.13,0.124l-0.131,0.124l-0.13,0.124l-0.132,0.123l-0.131,0.123l-0.132,0.122l-0.132,0.122l-0.133,0.122l-0.133,0.121l-0.134,0.121l-0.133,0.121l-0.134,0.12l-0.135,0.12l-0.135,0.119l-0.135,0.119l-0.136,0.118l-0.135,0.118l-0.137,0.118l-0.136,0.117l-0.137,0.117l-0.138,0.117l-0.137,0.116l-0.138,0.116l-0.139,0.115l-0.139,0.115l-0.139,0.114l-0.139,0.114l-0.14,0.114l-0.14,0.113l-0.141,0.113l-0.14,0.112l-0.142,0.112l-0.141,0.112l-0.142,0.111l-0.142,0.111l-0.143,0.11l-0.143,0.11l-0.143,0.11l-0.143,0.109l-0.144,0.108l-0.145,0.109l-0.144,0.107l-0.145,0.108l-0.145,0.107l-0.146,0.106l-0.146,0.106l-0.146,0.106l-0.147,0.105l-0.146,0.105l-0.148,0.105l-0.147,0.103l-0.148,0.104l-0.148,0.103l-0.149,0.103l-0.149,0.102l-0.149,0.102l-0.149,0.101l-0.15,0.101l-0.15,0.1l-0.151,0.101l-0.15,0.099l-0.151,0.099l-0.152,0.099l-0.151,0.098l-0.152,0.098l-0.153,0.097l-0.152,0.097l-0.153,0.097l-0.154,0.096l-0.153,0.095l-0.154,0.096l-0.154,0.094l-0.155,0.094l-0.154,0.094l-0.156,0.094l-0.155,0.092l-0.156,0.093l-0.156,0.092l-0.156,0.091l-0.157,0.091l-0.156,0.091l-0.158,0.09l-0.157,0.09l-0.158,0.089l-0.158,0.089l-0.158,0.088l-0.159,0.088l-0.159,0.087l-0.159,0.087l-0.16,0.086l-0.16,0.086l-0.16,0.086l-0.16,0.085l-0.161,0.084l-0.161,0.084l-0.161,0.084l-0.162,0.083l-0.162,0.083l-0.162,0.082l-0.162,0.081l-0.163,0.082l-0.163,0.08l-0.163,0.081l-0.163,0.079l-0.164,0.08l-0.164,0.078l-0.165,0.079l-0.164,0.078l-0.165,0.077l-0.165,0.077l-0.166,0.076l-0.165,0.076l-0.166,0.075l-0.167,0.075l-0.166,0.075l-0.167,0.074l-0.167,0.073l-0.167,0.073l-0.168,0.072l-0.168,0.072l-0.168,0.072l-0.168,0.071l-0.169,0.07l-0.168,0.07l-0.17,0.07l-0.169,0.069l-0.17,0.068l-0.17,0.068l-0.17,0.067l-0.17,0.067l-0.171,0.067l-0.171,0.066l-0.171,0.065l-0.171,0.065l-0.172,0.064l-0.172,0.064l-0.172,0.064l-0.172,0.063l-0.173,0.062l-0.173,0.062l-0.173,0.061l-0.173,0.061l-0.174,0.06l-0.174,0.06l-0.174,0.059l-0.174,0.059l-0.175,0.058l-0.175,0.058l-0.175,0.057l-0.175,0.057l-0.175,0.056l-0.176,0.056l-0.176,0.055l-0.176,0.054l-0.177,0.054l-0.176,0.054l-0.177,0.053l-0.177,0.052l-0.178,0.052l-0.177,0.051l-0.178,0.051l-0.178,0.051l-0.178,0.049l-0.179,0.05l-0.179,0.048l-0.178,0.048l-0.18,0.048l-0.179,0.047l-0.179,0.047l-0.18,0.046l-0.18,0.045l-0.18,0.045l-0.181,0.044l-0.181,0.044l-0.18,0.044l-0.181,0.042l-0.182,0.042l-0.181,0.042l-0.182,0.041l-0.182,0.041l-0.182,0.04l-0.182,0.039l-0.183,0.039l-0.182,0.038l-0.183,0.038l-0.183,0.037l-0.184,0.037l-0.183,0.036l-0.184,0.036l-0.184,0.035l-0.184,0.034l-0.184,0.034l-0.185,0.033l-0.184,0.033l-0.185,0.032l-0.185,0.032l-0.186,0.031l-0.185,0.03l-0.186,0.03l-0.186,0.029l-0.186,0.029l-0.186,0.028l-0.186,0.028l-0.187,0.027l-0.187,0.026l-0.187,0.026l-0.187,0.026l-0.187,0.024l-0.188,0.025l-0.187,0.023l-0.188,0.023l-0.188,0.023l-0.188,0.021l-0.189,0.022l-0.188,0.02l-0.189,0.02l-0.189,0.02l-0.189,0.019l-0.189,0.018l-0.19,0.018l-0.189,0.017l-0.19,0.017l-0.19,0.016l-0.19,0.015l-0.19,0.015l-0.191,0.014l-0.19,0.014l-0.191,0.013l-0.191,0.012l-0.191,0.012l-0.191,0.011l-0.192,0.011l-0.191,0.01l-0.192,0.009l-0.192,0.009l-0.192,0.008l-0.192,0.008l-0.192,0.007l-0.193,0.006l-0.193,0.006l-0.192,0.005l-0.193,0.005l-0.193,0.004l-0.194,0.003l-0.193,0.003l-0.194,0.002l-0.193,0.002l-0.194,0.001l-0.194,0l-0.194,0l-0.194,-0.001l-0.193,-0.002l-0.194,-0.002l-0.193,-0.003l-0.194,-0.003l-0.193,-0.004l-0.193,-0.005l-0.192,-0.005l-0.193,-0.006l-0.193,-0.006l-0.192,-0.007l-0.192,-0.008l-0.192,-0.008l-0.192,-0.009l-0.192,-0.009l-0.191,-0.01l-0.192,-0.011l-0.191,-0.011l-0.191,-0.012l-0.191,-0.012l-0.191,-0.013l-0.19,-0.014l-0.191,-0.014l-0.19,-0.015l-0.19,-0.015l-0.19,-0.016l-0.19,-0.017l-0.189,-0.017l-0.19,-0.018l-0.189,-0.018l-0.189,-0.019l-0.189,-0.02l-0.189,-0.02l-0.188,-0.02l-0.189,-0.022l-0.188,-0.021l-0.188,-0.023l-0.188,-0.023l-0.187,-0.023l-0.188,-0.025l-0.187,-0.024l-0.187,-0.026l-0.187,-0.026l-0.187,-0.026l-0.187,-0.027l-0.186,-0.028l-0.186,-0.028l-0.186,-0.029l-0.186,-0.029l-0.186,-0.03l-0.185,-0.03l-0.186,-0.031l-0.185,-0.032l-0.185,-0.032l-0.184,-0.033l-0.185,-0.033l-0.184,-0.034l-0.184,-0.034l-0.184,-0.035l-0.184,-0.036l-0.183,-0.036l-0.184,-0.037l-0.183,-0.037l-0.183,-0.038l-0.182,-0.038l-0.183,-0.039l-0.182,-0.039l-0.182,-0.04l-0.182,-0.041l-0.182,-0.041l-0.181,-0.042l-0.182,-0.042l-0.181,-0.042l-0.18,-0.044l-0.181,-0.044l-0.181,-0.044l-0.18,-0.045l-0.18,-0.045l-0.18,-0.046l-0.179,-0.047l-0.179,-0.047l-0.18,-0.048l-0.178,-0.048l-0.179,-0.048l-0.179,-0.05l-0.178,-0.049l-0.178,-0.051l-0.178,-0.051l-0.177,-0.051l-0.178,-0.052l-0.177,-0.052l-0.177,-0.053l-0.176,-0.054l-0.177,-0.054l-0.176,-0.054l-0.176,-0.055l-0.176,-0.056l-0.175,-0.056l-0.175,-0.057l-0.175,-0.057l-0.175,-0.058l-0.175,-0.058l-0.174,-0.059l-0.174,-0.059l-0.174,-0.06l-0.174,-0.06l-0.173,-0.061l-0.173,-0.061l-0.173,-0.062l-0.173,-0.062l-0.172,-0.063l-0.172,-0.064l-0.172,-0.064l-0.172,-0.064l-0.171,-0.065l-0.171,-0.065l-0.171,-0.066l-0.171,-0.067l-0.17,-0.067l-0.17,-0.067l-0.17,-0.068l-0.17,-0.068l-0.169,-0.069l-0.17,-0.07l-0.168,-0.07l-0.169,-0.07l-0.168,-0.071l-0.168,-0.072l-0.168,-0.072l-0.168,-0.072l-0.167,-0.073l-0.167,-0.073l-0.167,-0.074l-0.166,-0.075l-0.167,-0.075l-0.166,-0.075l-0.165,-0.076l-0.166,-0.076l-0.165,-0.077l-0.165,-0.077l-0.164,-0.078l-0.165,-0.079l-0.164,-0.078l-0.164,-0.08l-0.163,-0.079l-0.163,-0.081l-0.163,-0.08l-0.163,-0.082l-0.162,-0.081l-0.162,-0.082l-0.162,-0.083l-0.162,-0.083l-0.161,-0.084l-0.161,-0.084l-0.161,-0.084l-0.16,-0.085l-0.16,-0.086l-0.16,-0.086l-0.16,-0.086l-0.159,-0.087l-0.159,-0.087l-0.159,-0.088l-0.158,-0.088l-0.158,-0.089l-0.158,-0.089l-0.157,-0.09l-0.158,-0.09l-0.156,-0.091l-0.157,-0.091l-0.156,-0.091l-0.156,-0.092l-0.156,-0.093l-0.155,-0.092l-0.156,-0.094l-0.154,-0.094l-0.155,-0.094l-0.154,-0.094l-0.154,-0.096l-0.153,-0.095l-0.154,-0.096l-0.153,-0.097l-0.152,-0.097l-0.153,-0.097l-0.152,-0.098l-0.151,-0.098l-0.152,-0.099l-0.151,-0.099l-0.15,-0.099l-0.151,-0.101l-0.15,-0.1l-0.15,-0.101l-0.149,-0.101l-0.149,-0.102l-0.149,-0.102l-0.149,-0.103l-0.148,-0.103l-0.148,-0.104l-0.147,-0.103l-0.148,-0.105l-0.146,-0.105l-0.147,-0.105l-0.146,-0.106l-0.146,-0.106l-0.146,-0.106l-0.145,-0.107l-0.145,-0.108l-0.144,-0.107l-0.145,-0.109l-0.144,-0.108l-0.143,-0.109l-0.143,-0.11l-0.143,-0.11l-0.143,-0.11l-0.142,-0.111l-0.142,-0.111l-0.141,-0.112l-0.142,-0.112l-0.14,-0.112l-0.141,-0.113l-0.14,-0.113l-0.14,-0.114l-0.139,-0.114l-0.139,-0.114l-0.139,-0.115l-0.139,-0.115l-0.138,-0.116l-0.137,-0.116l-0.138,-0.117l-0.137,-0.117l-0.136,-0.117l-0.137,-0.118l-0.135,-0.118l-0.136,-0.118l-0.135,-0.119l-0.135,-0.119l-0.135,-0.12l-0.134,-0.12l-0.133,-0.121l-0.134,-0.121l-0.133,-0.121l-0.133,-0.122l-0.132,-0.122l-0.132,-0.122l-0.131,-0.123l-0.132,-0.123l-0.13,-0.124l-0.131,-0.124l-0.13,-0.124l-0.13,-0.125l-0.129,-0.125l-0.129,-0.126l-0.129,-0.126l-0.128,-0.126l-0.128,-0.127l-0.127,-0.127l-0.127,-0.127l-0.127,-0.128l-0.126,-0.128l-0.126,-0.129l-0.126,-0.129l-0.125,-0.129l-0.125,-0.13l-0.124,-0.13l-0.124,-0.131l-0.124,-0.13l-0.123,-0.132l-0.123,-0.131l-0.122,-0.132l-0.122,-0.132l-0.122,-0.133l-0.121,-0.133l-0.121,-0.134l-0.121,-0.133l-0.12,-0.134l-0.12,-0.135l-0.119,-0.135l-0.119,-0.135l-0.118,-0.136l-0.118,-0.135l-0.118,-0.137l-0.117,-0.136l-0.117,-0.137l-0.117,-0.138l-0.116,-0.137l-0.116,-0.138l-0.115,-0.139l-0.115,-0.139l-0.114,-0.139l-0.114,-0.139l-0.114,-0.14l-0.113,-0.14l-0.113,-0.141l-0.112,-0.14l-0.112,-0.142l-0.112,-0.141l-0.111,-0.142l-0.111,-0.142l-0.11,-0.143l-0.11,-0.143l-0.11,-0.143l-0.109,-0.143l-0.108,-0.144l-0.109,-0.145l-0.107,-0.144l-0.108,-0.145l-0.107,-0.145l-0.106,-0.146l-0.106,-0.146l-0.106,-0.146l-0.105,-0.147l-0.105,-0.146l-0.105,-0.148l-0.103,-0.147l-0.104,-0.148l-0.103,-0.148l-0.103,-0.149l-0.102,-0.149l-0.102,-0.149l-0.101,-0.149l-0.101,-0.15l-0.1,-0.15l-0.101,-0.151l-0.099,-0.15l-0.099,-0.151l-0.099,-0.152l-0.098,-0.151l-0.098,-0.152l-0.097,-0.153l-0.097,-0.152l-0.097,-0.153l-0.096,-0.154l-0.095,-0.153l-0.096,-0.154l-0.094,-0.154l-0.094,-0.155l-0.094,-0.154l-0.094,-0.156l-0.092,-0.155l-0.093,-0.156l-0.092,-0.156l-0.091,-0.156l-0.091,-0.157l-0.091,-0.156l-0.09,-0.158l-0.09,-0.157l-0.089,-0.158l-0.089,-0.158l-0.088,-0.158l-0.088,-0.159l-0.087,-0.159l-0.087,-0.159l-0.086,-0.16l-0.086,-0.16l-0.086,-0.16l-0.085,-0.16l-0.084,-0.161l-0.084,-0.161l-0.084,-0.161l-0.083,-0.162l-0.083,-0.162l-0.082,-0.162l-0.081,-0.162l-0.082,-0.163l-0.08,-0.163l-0.081,-0.163l-0.079,-0.163l-0.08,-0.164l-0.078,-0.164l-0.079,-0.165l-0.078,-0.164l-0.077,-0.165l-0.077,-0.165l-0.076,-0.166l-0.076,-0.165l-0.075,-0.166l-0.075,-0.167l-0.075,-0.166l-0.074,-0.167l-0.073,-0.167l-0.073,-0.167l-0.072,-0.168l-0.072,-0.168l-0.072,-0.168l-0.071,-0.168l-0.07,-0.169l-0.07,-0.168l-0.07,-0.17l-0.069,-0.169l-0.068,-0.17l-0.068,-0.17l-0.067,-0.17l-0.067,-0.17l-0.067,-0.171l-0.066,-0.171l-0.065,-0.171l-0.065,-0.171l-0.064,-0.172l-0.064,-0.172l-0.064,-0.172l-0.063,-0.172l-0.062,-0.173l-0.062,-0.173l-0.061,-0.173l-0.061,-0.173l-0.06,-0.174l-0.06,-0.174l-0.059,-0.174l-0.059,-0.174l-0.058,-0.175l-0.058,-0.175l-0.057,-0.175l-0.057,-0.175l-0.056,-0.175l-0.056,-0.176l-0.055,-0.176l-0.054,-0.176l-0.054,-0.177l-0.054,-0.176l-0.053,-0.177l-0.052,-0.177l-0.052,-0.178l-0.051,-0.177l-0.051,-0.178l-0.051,-0.178l-0.049,-0.178l-0.05,-0.179l-0.048,-0.179l-0.048,-0.178l-0.048,-0.18l-0.047,-0.179l-0.047,-0.179l-0.046,-0.18l-0.045,-0.18l-0.045,-0.18l-0.044,-0.181l-0.044,-0.181l-0.044,-0.18l-0.042,-0.181l-0.042,-0.182l-0.042,-0.181l-0.041,-0.182l-0.041,-0.182l-0.04,-0.182l-0.039,-0.182l-0.039,-0.183l-0.038,-0.182l-0.038,-0.183l-0.037,-0.183l-0.037,-0.184l-0.036,-0.183l-0.036,-0.184l-0.035,-0.184l-0.034,-0.184l-0.034,-0.184l-0.033,-0.185l-0.033,-0.184l-0.032,-0.185l-0.032,-0.185l-0.031,-0.186l-0.03,-0.185l-0.03,-0.186l-0.029,-0.186l-0.029,-0.186l-0.028,-0.186l-0.028,-0.186l-0.027,-0.187l-0.026,-0.187l-0.026,-0.187l-0.026,-0.187l-0.024,-0.187l-0.025,-0.188l-0.023,-0.187l-0.023,-0.188l-0.023,-0.188l-0.021,-0.188l-0.022,-0.189l-0.02,-0.188l-0.02,-0.189l-0.02,-0.189l-0.019,-0.189l-0.018,-0.189l-0.018,-0.19l-0.017,-0.189l-0.017,-0.19l-0.016,-0.19l-0.015,-0.19l-0.015,-0.19l-0.014,-0.191l-0.014,-0.19l-0.013,-0.191l-0.012,-0.191l-0.012,-0.191l-0.011,-0.191l-0.011,-0.192l-0.01,-0.191l-0.009,-0.192l-0.009,-0.192l-0.008,-0.192l-0.008,-0.192l-0.007,-0.192l-0.006,-0.193l-0.006,-0.193l-0.005,-0.192l-0.005,-0.193l-0.004,-0.193l-0.003,-0.194l-0.003,-0.193l-0.002,-0.194l-0.002,-0.193l-0.001,-0.194l0,-0.194l0,-0.194l0.001,-0.194l0.002,-0.193l0.002,-0.194l0.003,-0.193l0.003,-0.194l0.004,-0.193l0.005,-0.193l0.005,-0.192l0.006,-0.193l0.006,-0.193l0.007,-0.192l0.008,-0.192l0.008,-0.192l0.009,-0.192l0.009,-0.192l0.01,-0.191l0.011,-0.192l0.011,-0.191l0.012,-0.191l0.012,-0.191l0.013,-0.191l0.014,-0.19l0.014,-0.191l0.015,-0.19l0.015,-0.19l0.016,-0.19l0.017,-0.19l0.017,-0.189l0.018,-0.19l0.018,-0.189l0.019,-0.189l0.02,-0.189l0.02,-0.189l0.02,-0.188l0.022,-0.189l0.021,-0.188l0.023,-0.188l0.023,-0.188l0.023,-0.187l0.025,-0.188l0.024,-0.187l0.026,-0.187l0.026,-0.187l0.026,-0.187l0.027,-0.187l0.028,-0.186l0.028,-0.186l0.029,-0.186l0.029,-0.186l0.03,-0.186l0.03,-0.185l0.031,-0.186l0.032,-0.185l0.032,-0.185l0.033,-0.184l0.033,-0.185l0.034,-0.184l0.034,-0.184l0.035,-0.184l0.036,-0.184l0.036,-0.183l0.037,-0.184l0.037,-0.183l0.038,-0.183l0.038,-0.182l0.039,-0.183l0.039,-0.182l0.04,-0.182l0.041,-0.182l0.041,-0.182l0.042,-0.181l0.042,-0.182l0.042,-0.181l0.044,-0.18l0.044,-0.181l0.044,-0.181l0.045,-0.18l0.045,-0.18l0.046,-0.18l0.047,-0.179l0.047,-0.179l0.048,-0.18l0.048,-0.178l0.048,-0.179l0.05,-0.179l0.049,-0.178l0.051,-0.178l0.051,-0.178l0.051,-0.177l0.052,-0.178l0.052,-0.177l0.053,-0.177l0.054,-0.176l0.054,-0.177l0.054,-0.176l0.055,-0.176l0.056,-0.176l0.056,-0.175l0.057,-0.175l0.057,-0.175l0.058,-0.175l0.058,-0.175l0.059,-0.174l0.059,-0.174l0.06,-0.174l0.06,-0.174l0.061,-0.173l0.061,-0.173l0.062,-0.173l0.062,-0.173l0.063,-0.172l0.064,-0.172l0.064,-0.172l0.064,-0.172l0.065,-0.171l0.065,-0.171l0.066,-0.171l0.067,-0.171l0.067,-0.17l0.067,-0.17l0.068,-0.17l0.068,-0.17l0.069,-0.169l0.07,-0.17l0.07,-0.168l0.07,-0.169l0.071,-0.168l0.072,-0.168l0.072,-0.168l0.072,-0.168l0.073,-0.167l0.073,-0.167l0.074,-0.167l0.075,-0.166l0.075,-0.167l0.075,-0.166l0.076,-0.165l0.076,-0.166l0.077,-0.165l0.077,-0.165l0.078,-0.164l0.079,-0.165l0.078,-0.164l0.08,-0.164l0.079,-0.163l0.081,-0.163l0.08,-0.163l0.082,-0.163l0.081,-0.162l0.082,-0.162l0.083,-0.162l0.083,-0.162l0.084,-0.161l0.084,-0.161l0.084,-0.161l0.085,-0.16l0.086,-0.16l0.086,-0.16l0.086,-0.16l0.087,-0.159l0.087,-0.159l0.088,-0.159l0.088,-0.158l0.089,-0.158l0.089,-0.158l0.09,-0.157l0.09,-0.158l0.091,-0.156l0.091,-0.157l0.091,-0.156l0.092,-0.156l0.093,-0.156l0.092,-0.155l0.094,-0.156l0.094,-0.154l0.094,-0.155l0.094,-0.154l0.096,-0.154l0.095,-0.153l0.096,-0.154l0.097,-0.153l0.097,-0.152l0.097,-0.153l0.098,-0.152l0.098,-0.151l0.099,-0.152l0.099,-0.151l0.099,-0.15l0.101,-0.151l0.1,-0.15l0.101,-0.15l0.101,-0.149l0.102,-0.149l0.102,-0.149l0.103,-0.149l0.103,-0.148l0.104,-0.148l0.103,-0.147l0.105,-0.148l0.105,-0.146l0.105,-0.147l0.106,-0.146l0.106,-0.146l0.106,-0.146l0.107,-0.145l0.108,-0.145l0.107,-0.144l0.109,-0.145l0.108,-0.144l0.109,-0.143l0.11,-0.143l0.11,-0.143l0.11,-0.143l0.111,-0.142l0.111,-0.142l0.112,-0.141l0.112,-0.142l0.112,-0.14l0.113,-0.141l0.113,-0.14l0.114,-0.14l0.114,-0.139l0.114,-0.139l0.115,-0.139l0.115,-0.139l0.116,-0.138l0.116,-0.137l0.117,-0.138l0.117,-0.137l0.117,-0.136l0.118,-0.137l0.118,-0.135l0.118,-0.136l0.119,-0.135l0.119,-0.135l0.12,-0.135l0.12,-0.134l0.121,-0.133l0.121,-0.134l0.121,-0.133l0.122,-0.133l0.122,-0.132l0.122,-0.132l0.123,-0.131l0.123,-0.132l0.124,-0.13l0.124,-0.131l0.124,-0.13l0.125,-0.13l0.125,-0.129l0.126,-0.129l0.126,-0.129l0.126,-0.128l0.127,-0.128l0.127,-0.127l0.127,-0.127l0.128,-0.127l0.128,-0.126l0.129,-0.126l0.129,-0.126l0.129,-0.125l0.13,-0.125l0.13,-0.124l0.131,-0.124l0.13,-0.124l0.132,-0.123l0.131,-0.123l0.132,-0.122l0.132,-0.122l0.133,-0.122l0.133,-0.121l0.134,-0.121l0.133,-0.121l0.134,-0.12l0.135,-0.12l0.135,-0.119l0.135,-0.119l0.136,-0.118l0.135,-0.118l0.137,-0.118l0.136,-0.117l0.137,-0.117l0.138,-0.117l0.137,-0.116l0.138,-0.116l0.139,-0.115l0.139,-0.115l0.139,-0.114l0.139,-0.114l0.14,-0.114l0.14,-0.113l0.141,-0.113l0.14,-0.112l0.142,-0.112l0.141,-0.112l0.142,-0.111l0.142,-0.111l0.143,-0.11l0.143,-0.11l0.143,-0.11l0.143,-0.109l0.144,-0.108l0.145,-0.109l0.144,-0.107l0.145,-0.108l0.145,-0.107l0.146,-0.106l0.146,-0.106l0.146,-0.106l0.147,-0.105l0.146,-0.105l0.148,-0.105l0.147,-0.103l0.148,-0.104l0.148,-0.103l0.149,-0.103l0.149,-0.102l0.149,-0.102l0.149,-0.101l0.15,-0.101l0.15,-0.1l0.151,-0.101l0.15,-0.099l0.151,-0.099l0.152,-0.099l0.151,-0.098l0.152,-0.098l0.153,-0.097l0.152,-0.097l0.153,-0.097l0.154,-0.096l0.153,-0.095l0.154,-0.096l0.154,-0.094l0.155,-0.094l0.154,-0.094l0.156,-0.094l0.155,-0.092l0.156,-0.093l0.156,-0.092l0.156,-0.091l0.157,-0.091l0.156,-0.091l0.158,-0.09l0.157,-0.09l0.158,-0.089l0.158,-0.089l0.158,-0.088l0.159,-0.088l0.159,-0.087l0.159,-0.087l0.16,-0.086l0.16,-0.086l0.16,-0.086l0.16,-0.085l0.161,-0.084l0.161,-0.084l0.161,-0.084l0.162,-0.083l0.162,-0.083l0.162,-0.082l0.162,-0.081l0.163,-0.082l0.163,-0.08l0.163,-0.081l0.163,-0.079l0.164,-0.08l0.164,-0.078l0.165,-0.079l0.164,-0.078l0.165,-0.077l0.165,-0.077l0.166,-0.076l0.165,-0.076l0.166,-0.075l0.167,-0.075l0.166,-0.075l0.167,-0.074l0.167,-0.073l0.167,-0.073l0.168,-0.072l0.168,-0.072l0.168,-0.072l0.168,-0.071l0.169,-0.07l0.168,-0.07l0.17,-0.07l0.169,-0.069l0.17,-0.068l0.17,-0.068l0.17,-0.067l0.17,-0.067l0.171,-0.067l0.171,-0.066l0.171,-0.065l0.171,-0.065l0.172,-0.064l0.172,-0.064l0.172,-0.064l0.172,-0.063l0.173,-0.062l0.173,-0.062l0.173,-0.061l0.173,-0.061l0.174,-0.06l0.174,-0.06l0.174,-0.059l0.174,-0.059l0.175,-0.058l0.175,-0.058l0.175,-0.057l0.175,-0.057l0.175,-0.056l0.176,-0.056l0.176,-0.055l0.176,-0.054l0.177,-0.054l0.176,-0.054l0.177,-0.053l0.177,-0.052l0.178,-0.052l0.177,-0.051l0.178,-0.051l0.178,-0.051l0.178,-0.049l0.179,-0.05l0.179,-0.048l0.178,-0.048l0.18,-0.048l0.179,-0.047l0.179,-0.047l0.18,-0.046l0.18,-0.045l0.18,-0.045l0.181,-0.044l0.181,-0.044l0.18,-0.044l0.181,-0.042l0.182,-0.042l0.181,-0.042l0.182,-0.041l0.182,-0.041l0.182,-0.04l0.182,-0.039l0.183,-0.039l0.182,-0.038l0.183,-0.038l0.183,-0.037l0.184,-0.037l0.183,-0.036l0.184,-0.036l0.184,-0.035l0.184,-0.034l0.184,-0.034l0.185,-0.033l0.184,-0.033l0.185,-0.032l0.185,-0.032l0.186,-0.031l0.185,-0.03l0.186,-0.03l0.186,-0.029l0.186,-0.029l0.186,-0.028l0.186,-0.028l0.187,-0.027l0.187,-0.026l0.187,-0.026l0.187,-0.026l0.187,-0.024l0.188,-0.025l0.187,-0.023l0.188,-0.023l0.188,-0.023l0.188,-0.021l0.189,-0.022l0.188,-0.02l0.189,-0.02l0.189,-0.02l0.189,-0.019l0.189,-0.018l0.19,-0.018l0.189,-0.017l0.19,-0.017l0.19,-0.016l0.19,-0.015l0.19,-0.015l0.191,-0.014l0.19,-0.014l0.191,-0.013l0.191,-0.012l0.191,-0.012l0.191,-0.011l0.192,-0.011l0.191,-0.01l0.192,-0.009l0.192,-0.009l0.192,-0.008l0.192,-0.008l0.192,-0.007l0.193,-0.006l0.193,-0.006l0.192,-0.005l0.193,-0.005l0.193,-0.004l0.194,-0.003l0.193,-0.003l0.194,-0.002l0.193,-0.002l0.194,-0.001l0.194,0l0.194,0Zm-0.356,10l-0.162,0.001l-0.162,0.001l-0.162,0.002l-0.162,0.002l-0.161,0.003l-0.162,0.004l-0.161,0.003l-0.161,0.005l-0.161,0.005l-0.161,0.005l-0.161,0.006l-0.16,0.006l-0.16,0.007l-0.161,0.007l-0.16,0.008l-0.16,0.009l-0.159,0.009l-0.16,0.009l-0.159,0.01l-0.16,0.01l-0.159,0.011l-0.159,0.011l-0.159,0.012l-0.159,0.013l-0.158,0.012l-0.159,0.014l-0.158,0.014l-0.158,0.014l-0.158,0.015l-0.158,0.015l-0.157,0.016l-0.158,0.016l-0.157,0.017l-0.157,0.017l-0.157,0.018l-0.157,0.018l-0.157,0.019l-0.156,0.019l-0.157,0.019l-0.156,0.021l-0.156,0.02l-0.156,0.021l-0.156,0.022l-0.155,0.022l-0.156,0.022l-0.155,0.023l-0.155,0.024l-0.155,0.024l-0.155,0.024l-0.154,0.025l-0.155,0.026l-0.154,0.025l-0.154,0.027l-0.154,0.026l-0.154,0.028l-0.153,0.027l-0.154,0.029l-0.153,0.028l-0.153,0.029l-0.153,0.03l-0.153,0.03l-0.152,0.03l-0.153,0.031l-0.152,0.032l-0.152,0.032l-0.152,0.032l-0.152,0.033l-0.151,0.033l-0.152,0.034l-0.151,0.034l-0.151,0.035l-0.151,0.035l-0.15,0.035l-0.151,0.036l-0.15,0.037l-0.15,0.037l-0.15,0.037l-0.15,0.038l-0.149,0.038l-0.15,0.039l-0.149,0.039l-0.149,0.04l-0.149,0.04l-0.149,0.04l-0.148,0.041l-0.148,0.042l-0.148,0.042l-0.148,0.042l-0.148,0.043l-0.148,0.043l-0.147,0.044l-0.147,0.044l-0.147,0.044l-0.147,0.045l-0.147,0.045l-0.146,0.046l-0.146,0.047l-0.146,0.046l-0.146,0.047l-0.146,0.048l-0.145,0.048l-0.145,0.048l-0.145,0.049l-0.145,0.05l-0.145,0.049l-0.144,0.05l-0.144,0.051l-0.144,0.051l-0.144,0.052l-0.144,0.051l-0.143,0.053l-0.144,0.052l-0.143,0.054l-0.142,0.053l-0.143,0.054l-0.143,0.055l-0.142,0.055l-0.142,0.055l-0.142,0.056l-0.141,0.056l-0.142,0.056l-0.141,0.057l-0.141,0.058l-0.14,0.057l-0.141,0.059l-0.14,0.058l-0.14,0.059l-0.14,0.06l-0.14,0.06l-0.14,0.06l-0.139,0.061l-0.139,0.061l-0.139,0.061l-0.138,0.062l-0.139,0.063l-0.138,0.062l-0.138,0.064l-0.137,0.063l-0.138,0.064l-0.137,0.064l-0.137,0.065l-0.137,0.066l-0.137,0.065l-0.136,0.066l-0.136,0.067l-0.136,0.066l-0.136,0.068l-0.135,0.067l-0.136,0.068l-0.135,0.069l-0.134,0.068l-0.135,0.07l-0.134,0.069l-0.134,0.07l-0.134,0.071l-0.134,0.07l-0.133,0.072l-0.133,0.071l-0.133,0.072l-0.133,0.073l-0.132,0.072l-0.133,0.074l-0.132,0.073l-0.131,0.074l-0.132,0.074l-0.131,0.075l-0.131,0.075l-0.131,0.076l-0.13,0.075l-0.13,0.077l-0.13,0.076l-0.13,0.077l-0.13,0.078l-0.129,0.077l-0.129,0.079l-0.129,0.078l-0.128,0.079l-0.128,0.079l-0.128,0.08l-0.128,0.08l-0.128,0.081l-0.127,0.08l-0.127,0.081l-0.127,0.082l-0.126,0.082l-0.126,0.082l-0.126,0.083l-0.126,0.083l-0.125,0.083l-0.125,0.084l-0.125,0.084l-0.125,0.085l-0.124,0.085l-0.125,0.085l-0.123,0.085l-0.124,0.086l-0.123,0.087l-0.123,0.086l-0.123,0.087l-0.123,0.088l-0.122,0.088l-0.122,0.088l-0.121,0.088l-0.122,0.089l-0.121,0.089l-0.121,0.09l-0.12,0.09l-0.121,0.09l-0.12,0.091l-0.119,0.091l-0.12,0.091l-0.119,0.092l-0.119,0.092l-0.119,0.092l-0.118,0.093l-0.118,0.093l-0.118,0.094l-0.117,0.093l-0.118,0.094l-0.117,0.095l-0.116,0.095l-0.117,0.095l-0.116,0.095l-0.115,0.096l-0.116,0.096l-0.115,0.097l-0.115,0.097l-0.115,0.097l-0.114,0.098l-0.114,0.097l-0.114,0.099l-0.113,0.098l-0.113,0.099l-0.113,0.099l-0.112,0.1l-0.113,0.1l-0.112,0.1l-0.111,0.101l-0.112,0.101l-0.111,0.101l-0.11,0.101l-0.111,0.102l-0.11,0.102l-0.11,0.103l-0.109,0.103l-0.109,0.103l-0.109,0.103l-0.109,0.104l-0.108,0.104l-0.108,0.105l-0.108,0.105l-0.107,0.105l-0.107,0.105l-0.107,0.106l-0.106,0.106l-0.106,0.106l-0.106,0.107l-0.105,0.107l-0.105,0.107l-0.105,0.108l-0.105,0.108l-0.104,0.108l-0.104,0.109l-0.103,0.109l-0.103,0.109l-0.103,0.109l-0.103,0.11l-0.102,0.11l-0.102,0.111l-0.101,0.11l-0.101,0.111l-0.101,0.112l-0.101,0.111l-0.1,0.112l-0.1,0.113l-0.1,0.112l-0.099,0.113l-0.099,0.113l-0.098,0.113l-0.099,0.114l-0.097,0.114l-0.098,0.114l-0.097,0.115l-0.097,0.115l-0.097,0.115l-0.096,0.116l-0.096,0.115l-0.095,0.116l-0.095,0.117l-0.095,0.116l-0.095,0.117l-0.094,0.118l-0.093,0.117l-0.094,0.118l-0.093,0.118l-0.093,0.118l-0.092,0.119l-0.092,0.119l-0.092,0.119l-0.091,0.12l-0.091,0.119l-0.091,0.12l-0.09,0.121l-0.09,0.12l-0.09,0.121l-0.089,0.121l-0.089,0.122l-0.088,0.121l-0.088,0.122l-0.088,0.122l-0.088,0.123l-0.087,0.123l-0.086,0.123l-0.087,0.123l-0.086,0.124l-0.085,0.123l-0.085,0.125l-0.085,0.124l-0.085,0.125l-0.084,0.125l-0.084,0.125l-0.083,0.125l-0.083,0.126l-0.083,0.126l-0.082,0.126l-0.082,0.126l-0.082,0.127l-0.081,0.127l-0.08,0.127l-0.081,0.128l-0.08,0.128l-0.08,0.128l-0.079,0.128l-0.079,0.128l-0.078,0.129l-0.079,0.129l-0.077,0.129l-0.078,0.13l-0.077,0.13l-0.076,0.13l-0.077,0.13l-0.075,0.13l-0.076,0.131l-0.075,0.131l-0.075,0.131l-0.074,0.132l-0.074,0.131l-0.073,0.132l-0.074,0.133l-0.072,0.132l-0.073,0.133l-0.072,0.133l-0.071,0.133l-0.072,0.133l-0.07,0.134l-0.071,0.134l-0.07,0.134l-0.069,0.134l-0.07,0.135l-0.068,0.134l-0.069,0.135l-0.068,0.136l-0.067,0.135l-0.068,0.136l-0.066,0.136l-0.067,0.136l-0.066,0.136l-0.065,0.137l-0.066,0.137l-0.065,0.137l-0.064,0.137l-0.064,0.138l-0.063,0.137l-0.064,0.138l-0.062,0.138l-0.063,0.139l-0.062,0.138l-0.061,0.139l-0.061,0.139l-0.061,0.139l-0.06,0.14l-0.06,0.14l-0.06,0.14l-0.059,0.14l-0.058,0.14l-0.059,0.141l-0.057,0.14l-0.058,0.141l-0.057,0.141l-0.056,0.142l-0.056,0.141l-0.056,0.142l-0.055,0.142l-0.055,0.142l-0.055,0.143l-0.054,0.143l-0.053,0.142l-0.054,0.143l-0.052,0.144l-0.053,0.143l-0.051,0.144l-0.052,0.144l-0.051,0.144l-0.051,0.144l-0.05,0.144l-0.049,0.145l-0.05,0.145l-0.049,0.145l-0.048,0.145l-0.048,0.145l-0.048,0.146l-0.047,0.146l-0.046,0.146l-0.047,0.146l-0.046,0.146l-0.045,0.147l-0.045,0.147l-0.044,0.147l-0.044,0.147l-0.044,0.147l-0.043,0.148l-0.043,0.148l-0.042,0.148l-0.042,0.148l-0.042,0.148l-0.041,0.148l-0.04,0.149l-0.04,0.149l-0.04,0.149l-0.039,0.149l-0.039,0.15l-0.038,0.149l-0.038,0.15l-0.037,0.15l-0.037,0.15l-0.037,0.15l-0.036,0.151l-0.035,0.15l-0.035,0.151l-0.035,0.151l-0.034,0.151l-0.034,0.152l-0.033,0.151l-0.033,0.152l-0.032,0.152l-0.032,0.152l-0.032,0.152l-0.031,0.153l-0.03,0.152l-0.03,0.153l-0.03,0.153l-0.029,0.153l-0.028,0.153l-0.029,0.154l-0.027,0.153l-0.028,0.154l-0.026,0.154l-0.027,0.154l-0.025,0.154l-0.026,0.155l-0.025,0.154l-0.024,0.155l-0.024,0.155l-0.024,0.155l-0.023,0.155l-0.022,0.156l-0.022,0.155l-0.022,0.156l-0.021,0.156l-0.02,0.156l-0.021,0.156l-0.019,0.157l-0.019,0.156l-0.019,0.157l-0.018,0.157l-0.018,0.157l-0.017,0.157l-0.017,0.157l-0.016,0.158l-0.016,0.157l-0.015,0.158l-0.015,0.158l-0.014,0.158l-0.014,0.158l-0.014,0.159l-0.012,0.158l-0.013,0.159l-0.012,0.159l-0.011,0.159l-0.011,0.159l-0.01,0.16l-0.01,0.159l-0.009,0.16l-0.009,0.159l-0.009,0.16l-0.008,0.16l-0.007,0.161l-0.007,0.16l-0.006,0.16l-0.006,0.161l-0.005,0.161l-0.005,0.161l-0.005,0.161l-0.003,0.161l-0.004,0.162l-0.003,0.161l-0.002,0.162l-0.002,0.162l-0.001,0.162l-0.001,0.162l0,0.162l0,0.162l0.001,0.162l0.001,0.162l0.002,0.162l0.002,0.162l0.003,0.161l0.004,0.162l0.003,0.161l0.005,0.161l0.005,0.161l0.005,0.161l0.006,0.161l0.006,0.16l0.007,0.16l0.007,0.161l0.008,0.16l0.009,0.16l0.009,0.159l0.009,0.16l0.01,0.159l0.01,0.16l0.011,0.159l0.011,0.159l0.012,0.159l0.013,0.159l0.012,0.158l0.014,0.159l0.014,0.158l0.014,0.158l0.015,0.158l0.015,0.158l0.016,0.157l0.016,0.158l0.017,0.157l0.017,0.157l0.018,0.157l0.018,0.157l0.019,0.157l0.019,0.156l0.019,0.157l0.021,0.156l0.02,0.156l0.021,0.156l0.022,0.156l0.022,0.155l0.022,0.156l0.023,0.155l0.024,0.155l0.024,0.155l0.024,0.155l0.025,0.154l0.026,0.155l0.025,0.154l0.027,0.154l0.026,0.154l0.028,0.154l0.027,0.153l0.029,0.154l0.028,0.153l0.029,0.153l0.03,0.153l0.03,0.153l0.03,0.152l0.031,0.153l0.032,0.152l0.032,0.152l0.032,0.152l0.033,0.152l0.033,0.151l0.034,0.152l0.034,0.151l0.035,0.151l0.035,0.151l0.035,0.15l0.036,0.151l0.037,0.15l0.037,0.15l0.037,0.15l0.038,0.15l0.038,0.149l0.039,0.15l0.039,0.149l0.04,0.149l0.04,0.149l0.04,0.149l0.041,0.148l0.042,0.148l0.042,0.148l0.042,0.148l0.043,0.148l0.043,0.148l0.044,0.147l0.044,0.147l0.044,0.147l0.045,0.147l0.045,0.147l0.046,0.146l0.046,0.146l0.047,0.146l0.047,0.146l0.048,0.146l0.048,0.145l0.048,0.145l0.049,0.145l0.05,0.145l0.049,0.145l0.05,0.144l0.051,0.144l0.051,0.144l0.052,0.144l0.051,0.144l0.053,0.143l0.052,0.144l0.054,0.143l0.053,0.143l0.054,0.142l0.055,0.143l0.055,0.142l0.055,0.142l0.056,0.142l0.056,0.141l0.056,0.142l0.057,0.141l0.058,0.141l0.057,0.14l0.059,0.141l0.058,0.14l0.059,0.141l0.06,0.139l0.06,0.14l0.06,0.14l0.061,0.139l0.061,0.139l0.061,0.139l0.062,0.138l0.063,0.139l0.062,0.138l0.064,0.138l0.063,0.137l0.064,0.138l0.065,0.137l0.064,0.137l0.066,0.137l0.065,0.137l0.066,0.136l0.067,0.136l0.066,0.136l0.068,0.136l0.067,0.135l0.068,0.136l0.069,0.135l0.068,0.134l0.07,0.135l0.069,0.134l0.07,0.134l0.071,0.134l0.071,0.134l0.071,0.133l0.071,0.133l0.072,0.133l0.073,0.133l0.072,0.132l0.073,0.133l0.074,0.131l0.074,0.132l0.074,0.132l0.075,0.131l0.075,0.131l0.076,0.131l0.075,0.13l0.077,0.13l0.076,0.13l0.077,0.13l0.078,0.13l0.077,0.129l0.079,0.129l0.078,0.129l0.079,0.128l0.079,0.128l0.08,0.128l0.08,0.128l0.081,0.128l0.08,0.127l0.081,0.127l0.082,0.127l0.082,0.126l0.082,0.126l0.083,0.126l0.083,0.126l0.083,0.125l0.084,0.126l0.084,0.124l0.085,0.125l0.085,0.124l0.085,0.125l0.085,0.123l0.086,0.124l0.087,0.123l0.086,0.123l0.088,0.123l0.087,0.123l0.088,0.122l0.088,0.122l0.088,0.121l0.089,0.122l0.089,0.121l0.09,0.121l0.09,0.12l0.09,0.121l0.091,0.12l0.091,0.12l0.091,0.119l0.092,0.119l0.092,0.119l0.092,0.119l0.093,0.118l0.093,0.118l0.093,0.118l0.094,0.117l0.094,0.118l0.095,0.116l0.095,0.117l0.095,0.117l0.095,0.116l0.096,0.115l0.096,0.116l0.097,0.115l0.097,0.115l0.097,0.115l0.098,0.114l0.097,0.114l0.099,0.114l0.098,0.113l0.099,0.113l0.099,0.113l0.1,0.112l0.1,0.113l0.1,0.112l0.101,0.111l0.101,0.112l0.101,0.111l0.101,0.11l0.102,0.111l0.102,0.11l0.103,0.11l0.103,0.109l0.103,0.109l0.103,0.109l0.104,0.109l0.104,0.108l0.105,0.108l0.105,0.108l0.105,0.107l0.105,0.107l0.106,0.107l0.106,0.106l0.106,0.106l0.107,0.106l0.107,0.105l0.107,0.105l0.108,0.105l0.108,0.105l0.108,0.104l0.109,0.104l0.109,0.103l0.109,0.103l0.109,0.103l0.11,0.103l0.11,0.102l0.111,0.102l0.11,0.101l0.111,0.101l0.112,0.101l0.111,0.101l0.112,0.1l0.113,0.1l0.112,0.1l0.113,0.099l0.113,0.099l0.113,0.098l0.114,0.098l0.114,0.098l0.114,0.098l0.115,0.097l0.115,0.097l0.115,0.097l0.116,0.096l0.115,0.096l0.116,0.095l0.117,0.095l0.116,0.095l0.117,0.095l0.118,0.094l0.117,0.094l0.118,0.093l0.118,0.093l0.118,0.093l0.119,0.092l0.119,0.092l0.119,0.092l0.12,0.091l0.119,0.091l0.12,0.091l0.121,0.09l0.12,0.09l0.121,0.09l0.121,0.089l0.122,0.089l0.121,0.088l0.122,0.088l0.122,0.088l0.123,0.088l0.123,0.086l0.123,0.087l0.123,0.087l0.124,0.086l0.123,0.085l0.125,0.085l0.124,0.085l0.125,0.085l0.125,0.084l0.125,0.084l0.125,0.083l0.126,0.083l0.126,0.083l0.126,0.082l0.126,0.082l0.127,0.082l0.127,0.081l0.127,0.081l0.128,0.08l0.128,0.08l0.128,0.08l0.128,0.079l0.128,0.079l0.129,0.078l0.129,0.079l0.129,0.077l0.13,0.078l0.13,0.077l0.13,0.076l0.13,0.077l0.13,0.075l0.131,0.076l0.131,0.075l0.131,0.075l0.132,0.074l0.131,0.074l0.132,0.073l0.133,0.074l0.132,0.072l0.133,0.073l0.133,0.072l0.133,0.071l0.133,0.071l0.134,0.071l0.134,0.071l0.134,0.07l0.134,0.069l0.135,0.07l0.134,0.068l0.136,0.069l0.135,0.068l0.135,0.067l0.136,0.068l0.136,0.066l0.136,0.067l0.136,0.066l0.137,0.066l0.137,0.065l0.137,0.065l0.137,0.064l0.137,0.064l0.138,0.063l0.138,0.064l0.138,0.062l0.139,0.063l0.138,0.062l0.139,0.061l0.139,0.061l0.14,0.061l0.139,0.06l0.14,0.06l0.139,0.06l0.141,0.059l0.14,0.058l0.141,0.059l0.14,0.057l0.141,0.058l0.142,0.057l0.141,0.056l0.141,0.056l0.142,0.056l0.142,0.055l0.142,0.055l0.143,0.055l0.142,0.054l0.143,0.053l0.143,0.054l0.144,0.052l0.143,0.053l0.144,0.051l0.144,0.052l0.144,0.051l0.144,0.051l0.144,0.05l0.145,0.049l0.145,0.05l0.145,0.049l0.145,0.048l0.145,0.048l0.146,0.048l0.146,0.047l0.146,0.046l0.146,0.047l0.146,0.046l0.147,0.045l0.147,0.045l0.147,0.044l0.147,0.044l0.147,0.044l0.148,0.043l0.148,0.043l0.148,0.042l0.148,0.042l0.148,0.042l0.148,0.041l0.149,0.04l0.149,0.04l0.149,0.04l0.149,0.039l0.15,0.039l0.149,0.038l0.15,0.038l0.15,0.037l0.15,0.037l0.15,0.037l0.151,0.036l0.15,0.035l0.151,0.035l0.151,0.035l0.151,0.034l0.152,0.034l0.151,0.033l0.152,0.033l0.152,0.032l0.152,0.032l0.152,0.032l0.153,0.031l0.152,0.03l0.153,0.03l0.153,0.03l0.153,0.029l0.153,0.028l0.154,0.029l0.153,0.027l0.154,0.028l0.154,0.026l0.154,0.027l0.154,0.025l0.155,0.026l0.154,0.025l0.155,0.024l0.155,0.024l0.155,0.024l0.155,0.023l0.156,0.022l0.155,0.022l0.156,0.022l0.156,0.021l0.156,0.02l0.156,0.021l0.156,0.019l0.157,0.019l0.157,0.019l0.157,0.018l0.157,0.018l0.157,0.017l0.157,0.017l0.158,0.016l0.157,0.016l0.158,0.015l0.158,0.015l0.158,0.014l0.158,0.014l0.159,0.014l0.158,0.012l0.159,0.013l0.159,0.012l0.159,0.011l0.159,0.011l0.159,0.01l0.16,0.01l0.16,0.009l0.159,0.009l0.16,0.009l0.16,0.008l0.161,0.007l0.16,0.007l0.16,0.006l0.161,0.006l0.161,0.005l0.161,0.005l0.161,0.005l0.161,0.003l0.162,0.004l0.161,0.003l0.162,0.002l0.162,0.002l0.162,0.001l0.162,0.001l0.162,0l0.162,0l0.162,-0.001l0.162,-0.001l0.162,-0.002l0.162,-0.002l0.161,-0.003l0.162,-0.004l0.161,-0.003l0.161,-0.005l0.161,-0.005l0.161,-0.005l0.161,-0.006l0.16,-0.006l0.16,-0.007l0.161,-0.007l0.16,-0.008l0.16,-0.009l0.159,-0.009l0.16,-0.009l0.16,-0.01l0.159,-0.01l0.159,-0.011l0.159,-0.011l0.159,-0.012l0.159,-0.013l0.158,-0.012l0.159,-0.014l0.158,-0.014l0.158,-0.014l0.158,-0.015l0.158,-0.015l0.157,-0.016l0.158,-0.016l0.157,-0.017l0.157,-0.017l0.157,-0.018l0.157,-0.018l0.157,-0.019l0.157,-0.019l0.156,-0.019l0.156,-0.021l0.156,-0.02l0.156,-0.021l0.156,-0.022l0.155,-0.022l0.156,-0.022l0.155,-0.023l0.155,-0.024l0.155,-0.024l0.155,-0.024l0.154,-0.025l0.155,-0.026l0.154,-0.025l0.154,-0.027l0.154,-0.026l0.154,-0.028l0.153,-0.027l0.154,-0.029l0.153,-0.028l0.153,-0.029l0.153,-0.03l0.153,-0.03l0.152,-0.03l0.153,-0.031l0.152,-0.032l0.152,-0.032l0.152,-0.032l0.152,-0.033l0.151,-0.033l0.152,-0.034l0.151,-0.034l0.151,-0.035l0.151,-0.035l0.15,-0.035l0.151,-0.036l0.15,-0.037l0.15,-0.037l0.15,-0.037l0.15,-0.038l0.149,-0.038l0.15,-0.039l0.149,-0.039l0.149,-0.04l0.149,-0.04l0.149,-0.04l0.148,-0.041l0.148,-0.042l0.148,-0.042l0.148,-0.042l0.148,-0.043l0.148,-0.043l0.147,-0.044l0.147,-0.044l0.147,-0.044l0.147,-0.045l0.147,-0.045l0.146,-0.046l0.146,-0.047l0.146,-0.046l0.146,-0.047l0.146,-0.048l0.145,-0.048l0.145,-0.048l0.145,-0.049l0.145,-0.05l0.145,-0.049l0.144,-0.05l0.144,-0.051l0.144,-0.051l0.144,-0.052l0.144,-0.051l0.143,-0.053l0.144,-0.052l0.143,-0.054l0.143,-0.053l0.142,-0.054l0.143,-0.055l0.142,-0.055l0.142,-0.055l0.142,-0.056l0.141,-0.056l0.141,-0.056l0.142,-0.057l0.141,-0.058l0.14,-0.057l0.141,-0.059l0.14,-0.058l0.141,-0.059l0.139,-0.06l0.14,-0.06l0.139,-0.06l0.14,-0.061l0.139,-0.061l0.139,-0.061l0.138,-0.062l0.139,-0.063l0.138,-0.062l0.138,-0.064l0.138,-0.063l0.137,-0.064l0.137,-0.065l0.137,-0.064l0.137,-0.065l0.137,-0.066l0.136,-0.066l0.136,-0.067l0.136,-0.066l0.136,-0.068l0.135,-0.067l0.136,-0.068l0.135,-0.069l0.134,-0.068l0.135,-0.07l0.134,-0.069l0.134,-0.07l0.134,-0.071l0.134,-0.071l0.133,-0.071l0.133,-0.071l0.133,-0.072l0.133,-0.073l0.132,-0.072l0.132,-0.073l0.133,-0.074l0.131,-0.074l0.132,-0.074l0.131,-0.075l0.131,-0.075l0.131,-0.076l0.13,-0.075l0.13,-0.077l0.13,-0.076l0.13,-0.077l0.13,-0.078l0.129,-0.077l0.129,-0.079l0.129,-0.078l0.128,-0.079l0.128,-0.079l0.128,-0.08l0.128,-0.08l0.128,-0.081l0.127,-0.08l0.127,-0.081l0.127,-0.082l0.126,-0.082l0.126,-0.082l0.126,-0.083l0.126,-0.083l0.125,-0.083l0.125,-0.084l0.125,-0.084l0.125,-0.085l0.124,-0.085l0.125,-0.085l0.123,-0.085l0.124,-0.086l0.123,-0.087l0.123,-0.087l0.123,-0.086l0.123,-0.088l0.122,-0.088l0.122,-0.088l0.121,-0.088l0.122,-0.089l0.121,-0.089l0.121,-0.09l0.12,-0.09l0.121,-0.09l0.12,-0.091l0.12,-0.091l0.119,-0.091l0.119,-0.092l0.119,-0.092l0.119,-0.092l0.118,-0.093l0.118,-0.093l0.118,-0.093l0.118,-0.094l0.117,-0.094l0.116,-0.095l0.117,-0.095l0.117,-0.095l0.116,-0.095l0.115,-0.096l0.116,-0.096l0.115,-0.097l0.115,-0.097l0.115,-0.097l0.114,-0.098l0.114,-0.097l0.114,-0.099l0.113,-0.098l0.113,-0.099l0.113,-0.099l0.112,-0.1l0.113,-0.1l0.112,-0.1l0.111,-0.101l0.112,-0.101l0.111,-0.101l0.11,-0.101l0.111,-0.102l0.11,-0.102l0.11,-0.103l0.109,-0.103l0.109,-0.103l0.109,-0.103l0.109,-0.104l0.108,-0.105l0.108,-0.104l0.108,-0.105l0.107,-0.105l0.107,-0.105l0.107,-0.106l0.106,-0.106l0.106,-0.106l0.106,-0.107l0.105,-0.107l0.105,-0.107l0.105,-0.108l0.104,-0.108l0.105,-0.108l0.104,-0.109l0.103,-0.109l0.103,-0.109l0.103,-0.109l0.103,-0.11l0.102,-0.11l0.102,-0.111l0.101,-0.11l0.101,-0.111l0.101,-0.112l0.101,-0.111l0.1,-0.112l0.1,-0.113l0.1,-0.112l0.099,-0.113l0.099,-0.113l0.098,-0.113l0.099,-0.114l0.097,-0.114l0.098,-0.114l0.097,-0.115l0.097,-0.115l0.097,-0.115l0.096,-0.116l0.096,-0.115l0.095,-0.116l0.095,-0.117l0.095,-0.117l0.095,-0.116l0.094,-0.117l0.094,-0.118l0.093,-0.118l0.093,-0.118l0.093,-0.118l0.092,-0.119l0.092,-0.119l0.092,-0.119l0.091,-0.119l0.091,-0.12l0.091,-0.12l0.09,-0.121l0.09,-0.12l0.09,-0.121l0.089,-0.121l0.089,-0.122l0.088,-0.121l0.088,-0.122l0.088,-0.122l0.088,-0.123l0.086,-0.123l0.087,-0.123l0.087,-0.123l0.086,-0.124l0.085,-0.123l0.085,-0.125l0.085,-0.124l0.085,-0.125l0.084,-0.125l0.084,-0.125l0.083,-0.125l0.083,-0.126l0.083,-0.126l0.082,-0.126l0.082,-0.126l0.082,-0.127l0.081,-0.127l0.08,-0.127l0.081,-0.128l0.08,-0.128l0.08,-0.128l0.079,-0.128l0.079,-0.128l0.078,-0.129l0.079,-0.129l0.077,-0.129l0.078,-0.13l0.077,-0.13l0.076,-0.13l0.077,-0.13l0.075,-0.13l0.076,-0.131l0.075,-0.131l0.075,-0.131l0.074,-0.132l0.074,-0.131l0.074,-0.133l0.073,-0.132l0.072,-0.132l0.073,-0.133l0.072,-0.133l0.071,-0.133l0.071,-0.133l0.071,-0.134l0.071,-0.134l0.07,-0.134l0.069,-0.134l0.07,-0.135l0.068,-0.134l0.069,-0.135l0.068,-0.136l0.067,-0.135l0.068,-0.136l0.066,-0.136l0.067,-0.136l0.066,-0.136l0.066,-0.137l0.065,-0.137l0.064,-0.137l0.065,-0.137l0.064,-0.137l0.063,-0.138l0.064,-0.138l0.062,-0.138l0.063,-0.139l0.062,-0.138l0.061,-0.139l0.061,-0.139l0.061,-0.14l0.06,-0.139l0.06,-0.14l0.06,-0.139l0.059,-0.141l0.058,-0.14l0.059,-0.141l0.057,-0.14l0.058,-0.141l0.057,-0.142l0.056,-0.141l0.056,-0.141l0.056,-0.142l0.055,-0.142l0.055,-0.142l0.055,-0.143l0.054,-0.142l0.053,-0.143l0.054,-0.143l0.052,-0.144l0.053,-0.143l0.051,-0.144l0.052,-0.144l0.051,-0.144l0.051,-0.144l0.05,-0.144l0.049,-0.145l0.05,-0.145l0.049,-0.145l0.048,-0.145l0.048,-0.145l0.048,-0.146l0.047,-0.146l0.046,-0.146l0.047,-0.146l0.046,-0.146l0.045,-0.147l0.045,-0.147l0.044,-0.147l0.044,-0.147l0.044,-0.147l0.043,-0.148l0.043,-0.148l0.042,-0.148l0.042,-0.148l0.042,-0.148l0.041,-0.148l0.04,-0.149l0.04,-0.149l0.04,-0.149l0.039,-0.149l0.039,-0.15l0.038,-0.149l0.038,-0.15l0.037,-0.15l0.037,-0.15l0.037,-0.15l0.036,-0.151l0.035,-0.15l0.035,-0.151l0.035,-0.151l0.034,-0.151l0.034,-0.152l0.033,-0.151l0.033,-0.152l0.032,-0.152l0.032,-0.152l0.032,-0.152l0.031,-0.153l0.03,-0.152l0.03,-0.153l0.03,-0.153l0.029,-0.153l0.028,-0.153l0.029,-0.154l0.027,-0.153l0.028,-0.154l0.026,-0.154l0.027,-0.154l0.025,-0.154l0.026,-0.155l0.025,-0.154l0.024,-0.155l0.024,-0.155l0.024,-0.155l0.023,-0.155l0.022,-0.156l0.022,-0.155l0.022,-0.156l0.021,-0.156l0.02,-0.156l0.021,-0.156l0.019,-0.156l0.019,-0.157l0.019,-0.157l0.018,-0.157l0.018,-0.157l0.017,-0.157l0.017,-0.157l0.016,-0.158l0.016,-0.157l0.015,-0.158l0.015,-0.158l0.014,-0.158l0.014,-0.158l0.014,-0.159l0.012,-0.158l0.013,-0.159l0.012,-0.159l0.011,-0.159l0.011,-0.159l0.01,-0.159l0.01,-0.16l0.009,-0.16l0.009,-0.159l0.009,-0.16l0.008,-0.16l0.007,-0.161l0.007,-0.16l0.006,-0.16l0.006,-0.161l0.005,-0.161l0.005,-0.161l0.005,-0.161l0.003,-0.161l0.004,-0.162l0.003,-0.161l0.002,-0.162l0.002,-0.162l0.001,-0.162l0.001,-0.162l0,-0.162l0,-0.162l-0.001,-0.162l-0.001,-0.162l-0.002,-0.162l-0.002,-0.162l-0.003,-0.161l-0.004,-0.162l-0.003,-0.161l-0.005,-0.161l-0.005,-0.161l-0.005,-0.161l-0.006,-0.161l-0.006,-0.16l-0.007,-0.16l-0.007,-0.161l-0.008,-0.16l-0.009,-0.16l-0.009,-0.159l-0.009,-0.16l-0.01,-0.16l-0.01,-0.159l-0.011,-0.159l-0.011,-0.159l-0.012,-0.159l-0.013,-0.159l-0.012,-0.158l-0.014,-0.159l-0.014,-0.158l-0.014,-0.158l-0.015,-0.158l-0.015,-0.158l-0.016,-0.157l-0.016,-0.158l-0.017,-0.157l-0.017,-0.157l-0.018,-0.157l-0.018,-0.157l-0.019,-0.157l-0.019,-0.157l-0.019,-0.156l-0.021,-0.156l-0.02,-0.156l-0.021,-0.156l-0.022,-0.156l-0.022,-0.155l-0.022,-0.156l-0.023,-0.155l-0.024,-0.155l-0.024,-0.155l-0.024,-0.155l-0.025,-0.154l-0.026,-0.155l-0.025,-0.154l-0.027,-0.154l-0.026,-0.154l-0.028,-0.154l-0.027,-0.153l-0.029,-0.154l-0.028,-0.153l-0.029,-0.153l-0.03,-0.153l-0.03,-0.153l-0.03,-0.152l-0.031,-0.153l-0.032,-0.152l-0.032,-0.152l-0.032,-0.152l-0.033,-0.152l-0.033,-0.151l-0.034,-0.152l-0.034,-0.151l-0.035,-0.151l-0.035,-0.151l-0.035,-0.15l-0.036,-0.151l-0.037,-0.15l-0.037,-0.15l-0.037,-0.15l-0.038,-0.15l-0.038,-0.149l-0.039,-0.15l-0.039,-0.149l-0.04,-0.149l-0.04,-0.149l-0.04,-0.149l-0.041,-0.148l-0.042,-0.148l-0.042,-0.148l-0.042,-0.148l-0.043,-0.148l-0.043,-0.148l-0.044,-0.147l-0.044,-0.147l-0.044,-0.147l-0.045,-0.147l-0.045,-0.147l-0.046,-0.146l-0.047,-0.146l-0.046,-0.146l-0.047,-0.146l-0.048,-0.146l-0.048,-0.145l-0.048,-0.145l-0.049,-0.145l-0.05,-0.145l-0.049,-0.145l-0.05,-0.144l-0.051,-0.144l-0.051,-0.144l-0.052,-0.144l-0.051,-0.144l-0.053,-0.143l-0.052,-0.144l-0.054,-0.143l-0.053,-0.143l-0.054,-0.142l-0.055,-0.143l-0.055,-0.142l-0.055,-0.142l-0.056,-0.142l-0.056,-0.141l-0.056,-0.141l-0.057,-0.142l-0.058,-0.141l-0.057,-0.14l-0.059,-0.141l-0.058,-0.14l-0.059,-0.141l-0.06,-0.139l-0.06,-0.14l-0.06,-0.139l-0.061,-0.14l-0.061,-0.139l-0.061,-0.139l-0.062,-0.138l-0.063,-0.139l-0.062,-0.138l-0.064,-0.138l-0.063,-0.138l-0.064,-0.137l-0.064,-0.137l-0.065,-0.137l-0.065,-0.137l-0.066,-0.137l-0.066,-0.136l-0.067,-0.136l-0.066,-0.136l-0.068,-0.136l-0.067,-0.135l-0.068,-0.135l-0.069,-0.136l-0.068,-0.134l-0.07,-0.135l-0.069,-0.134l-0.07,-0.134l-0.071,-0.134l-0.071,-0.134l-0.071,-0.133l-0.071,-0.133l-0.072,-0.133l-0.073,-0.133l-0.072,-0.132l-0.074,-0.133l-0.073,-0.132l-0.074,-0.131l-0.074,-0.132l-0.075,-0.131l-0.075,-0.131l-0.076,-0.131l-0.075,-0.13l-0.077,-0.13l-0.076,-0.13l-0.077,-0.13l-0.078,-0.13l-0.077,-0.129l-0.079,-0.129l-0.078,-0.129l-0.079,-0.128l-0.079,-0.128l-0.08,-0.128l-0.08,-0.128l-0.08,-0.128l-0.081,-0.127l-0.081,-0.127l-0.082,-0.127l-0.082,-0.126l-0.082,-0.126l-0.083,-0.126l-0.083,-0.126l-0.083,-0.125l-0.084,-0.125l-0.084,-0.125l-0.085,-0.125l-0.085,-0.124l-0.085,-0.125l-0.085,-0.123l-0.086,-0.124l-0.087,-0.123l-0.087,-0.123l-0.086,-0.123l-0.088,-0.123l-0.088,-0.122l-0.088,-0.122l-0.088,-0.121l-0.089,-0.122l-0.089,-0.121l-0.09,-0.121l-0.09,-0.12l-0.09,-0.121l-0.091,-0.12l-0.091,-0.119l-0.091,-0.12l-0.092,-0.119l-0.092,-0.119l-0.092,-0.119l-0.093,-0.118l-0.093,-0.118l-0.093,-0.118l-0.094,-0.117l-0.094,-0.118l-0.095,-0.117l-0.095,-0.116l-0.095,-0.117l-0.095,-0.116l-0.096,-0.115l-0.096,-0.116l-0.097,-0.115l-0.097,-0.115l-0.097,-0.115l-0.098,-0.114l-0.098,-0.114l-0.098,-0.114l-0.098,-0.113l-0.099,-0.113l-0.099,-0.113l-0.1,-0.112l-0.1,-0.113l-0.1,-0.112l-0.101,-0.111l-0.101,-0.112l-0.101,-0.111l-0.101,-0.11l-0.102,-0.111l-0.102,-0.11l-0.103,-0.11l-0.103,-0.109l-0.103,-0.109l-0.103,-0.109l-0.104,-0.109l-0.104,-0.108l-0.105,-0.108l-0.105,-0.108l-0.105,-0.107l-0.105,-0.107l-0.106,-0.107l-0.106,-0.106l-0.106,-0.106l-0.107,-0.106l-0.107,-0.105l-0.107,-0.105l-0.108,-0.105l-0.108,-0.105l-0.108,-0.104l-0.109,-0.104l-0.109,-0.103l-0.109,-0.103l-0.109,-0.103l-0.11,-0.103l-0.11,-0.102l-0.111,-0.102l-0.11,-0.101l-0.111,-0.101l-0.112,-0.101l-0.111,-0.101l-0.112,-0.1l-0.113,-0.1l-0.112,-0.1l-0.113,-0.099l-0.113,-0.099l-0.113,-0.098l-0.114,-0.099l-0.114,-0.097l-0.114,-0.098l-0.115,-0.097l-0.115,-0.097l-0.115,-0.097l-0.116,-0.096l-0.115,-0.096l-0.116,-0.095l-0.117,-0.095l-0.117,-0.095l-0.116,-0.095l-0.118,-0.094l-0.117,-0.094l-0.118,-0.093l-0.118,-0.093l-0.118,-0.093l-0.119,-0.092l-0.119,-0.092l-0.119,-0.092l-0.119,-0.091l-0.12,-0.091l-0.12,-0.091l-0.121,-0.09l-0.12,-0.09l-0.121,-0.09l-0.121,-0.089l-0.122,-0.089l-0.121,-0.088l-0.122,-0.088l-0.122,-0.088l-0.123,-0.087l-0.123,-0.088l-0.123,-0.086l-0.123,-0.087l-0.124,-0.086l-0.123,-0.085l-0.125,-0.085l-0.124,-0.085l-0.125,-0.085l-0.124,-0.084l-0.126,-0.084l-0.125,-0.083l-0.126,-0.083l-0.126,-0.083l-0.126,-0.082l-0.126,-0.082l-0.127,-0.082l-0.127,-0.081l-0.127,-0.08l-0.128,-0.081l-0.128,-0.08l-0.128,-0.08l-0.128,-0.079l-0.128,-0.079l-0.129,-0.078l-0.129,-0.079l-0.129,-0.077l-0.13,-0.078l-0.13,-0.077l-0.13,-0.076l-0.13,-0.077l-0.13,-0.075l-0.131,-0.076l-0.131,-0.075l-0.131,-0.075l-0.132,-0.074l-0.132,-0.074l-0.131,-0.074l-0.133,-0.073l-0.132,-0.072l-0.133,-0.073l-0.133,-0.072l-0.133,-0.071l-0.133,-0.071l-0.134,-0.071l-0.134,-0.071l-0.134,-0.07l-0.134,-0.069l-0.135,-0.07l-0.134,-0.068l-0.135,-0.069l-0.136,-0.068l-0.135,-0.067l-0.136,-0.068l-0.136,-0.066l-0.136,-0.067l-0.136,-0.066l-0.137,-0.065l-0.137,-0.066l-0.137,-0.064l-0.137,-0.065l-0.138,-0.064l-0.137,-0.063l-0.138,-0.064l-0.138,-0.062l-0.139,-0.063l-0.138,-0.062l-0.139,-0.061l-0.139,-0.061l-0.139,-0.061l-0.14,-0.06l-0.14,-0.06l-0.139,-0.06l-0.141,-0.059l-0.14,-0.058l-0.141,-0.059l-0.14,-0.057l-0.141,-0.058l-0.141,-0.057l-0.142,-0.056l-0.141,-0.056l-0.142,-0.056l-0.142,-0.055l-0.142,-0.055l-0.143,-0.055l-0.142,-0.054l-0.143,-0.053l-0.143,-0.054l-0.144,-0.052l-0.143,-0.053l-0.144,-0.051l-0.144,-0.052l-0.144,-0.051l-0.144,-0.051l-0.144,-0.05l-0.145,-0.049l-0.145,-0.05l-0.145,-0.049l-0.145,-0.048l-0.145,-0.048l-0.146,-0.048l-0.146,-0.047l-0.146,-0.047l-0.146,-0.046l-0.146,-0.046l-0.147,-0.045l-0.147,-0.045l-0.147,-0.044l-0.147,-0.044l-0.147,-0.044l-0.148,-0.043l-0.148,-0.043l-0.148,-0.042l-0.148,-0.042l-0.148,-0.042l-0.148,-0.041l-0.149,-0.04l-0.149,-0.04l-0.149,-0.04l-0.149,-0.039l-0.15,-0.039l-0.149,-0.038l-0.15,-0.038l-0.15,-0.037l-0.15,-0.037l-0.15,-0.037l-0.151,-0.036l-0.15,-0.035l-0.151,-0.035l-0.151,-0.035l-0.151,-0.034l-0.152,-0.034l-0.151,-0.033l-0.152,-0.033l-0.152,-0.032l-0.152,-0.032l-0.152,-0.032l-0.153,-0.031l-0.152,-0.03l-0.153,-0.03l-0.153,-0.03l-0.153,-0.029l-0.153,-0.028l-0.154,-0.029l-0.153,-0.027l-0.154,-0.028l-0.154,-0.026l-0.154,-0.027l-0.154,-0.025l-0.155,-0.026l-0.154,-0.025l-0.155,-0.024l-0.155,-0.024l-0.155,-0.024l-0.155,-0.023l-0.156,-0.022l-0.155,-0.022l-0.156,-0.022l-0.156,-0.021l-0.156,-0.02l-0.156,-0.021l-0.157,-0.019l-0.156,-0.019l-0.157,-0.019l-0.157,-0.018l-0.157,-0.018l-0.157,-0.017l-0.157,-0.017l-0.158,-0.016l-0.157,-0.016l-0.158,-0.015l-0.158,-0.015l-0.158,-0.014l-0.158,-0.014l-0.159,-0.014l-0.158,-0.012l-0.159,-0.013l-0.159,-0.012l-0.159,-0.011l-0.159,-0.011l-0.16,-0.01l-0.159,-0.01l-0.16,-0.009l-0.159,-0.009l-0.16,-0.009l-0.16,-0.008l-0.161,-0.007l-0.16,-0.007l-0.16,-0.006l-0.161,-0.006l-0.161,-0.005l-0.161,-0.005l-0.161,-0.005l-0.161,-0.003l-0.162,-0.004l-0.161,-0.003l-0.162,-0.002l-0.162,-0.002l-0.162,-0.001l-0.162,-0.001l-0.162,0l-0.162,0Z"/><path d="M39.043,96.298l8.946,-43.233l24.022,13.87l-32.968,29.363Z"/><path d="M80.957,23.702l-8.946,43.233l-24.022,-13.87l32.968,-29.363Z" style="fill:#ebebeb;"/><path d="M72.011,66.935l-24.022,-13.87l32.968,-29.363l-8.946,43.233Zm-19.457,-14.337l17.579,10.149l6.546,-31.636l-24.125,21.487Z"/></svg>